<svg version="1.1" id="Layer_1" xmlns="http://www.w3.org/2000/svg" xmlns:xlink="http://www.w3.org/1999/xlink" x="0px" y="0px"
	 width="100%" viewBox="0 0 225 225" enable-background="new 0 0 225 225" xml:space="preserve">
<path fill="#FEFEFE" opacity="1.000000" stroke="none" 
	d="
M135.000000,226.000000 
	C90.000000,226.000000 45.500004,226.000000 1.000006,226.000000 
	C1.000004,151.000000 1.000004,76.000015 1.000002,1.000016 
	C75.999992,1.000011 150.999985,1.000011 225.999969,1.000005 
	C225.999985,75.999985 225.999985,150.999969 226.000000,225.999969 
	C195.833328,226.000000 165.666672,226.000000 135.000000,226.000000 
M123.759285,193.076401 
	C123.759285,193.076401 123.887016,193.048599 123.671127,193.956924 
	C123.661346,198.270065 123.470726,202.595276 123.756752,206.888702 
	C123.838005,208.108398 125.062149,209.859924 126.181633,210.299667 
	C131.692322,212.464264 137.344116,214.269623 143.330338,216.746613 
	C143.765640,216.151917 144.200943,215.557236 144.833359,214.048553 
	C144.779785,199.694824 144.726212,185.341110 144.888474,170.262375 
	C144.965836,169.511795 145.043198,168.761200 145.752670,167.893036 
	C147.680557,167.739944 149.608444,167.586838 151.419693,167.443008 
	C151.562820,164.940262 151.746552,161.727783 151.930283,158.515289 
	C152.465027,158.499557 152.999771,158.483826 153.534515,158.468094 
	C154.961761,159.693069 156.389023,160.918045 157.632004,162.915192 
	C156.068527,167.489365 154.505035,172.063522 152.941559,176.637695 
	C153.347504,176.908142 153.753448,177.178604 154.159393,177.449051 
	C155.615829,176.473724 157.331619,175.736542 158.483643,174.481750 
	C163.404724,169.121719 168.838318,164.055481 172.798035,158.035583 
	C177.455765,150.954559 180.782410,142.997955 185.075165,136.099167 
	C189.408661,138.452942 189.006989,132.815033 191.600769,132.232651 
	C191.111298,130.153961 190.621841,128.075256 190.321045,125.294571 
	C190.547134,124.179825 190.773224,123.065079 190.960815,121.982773 
	C190.960815,121.982773 190.969025,122.033501 191.570618,122.212624 
	C191.681778,121.820496 191.792953,121.428360 192.582733,121.102989 
	C193.723602,122.404839 194.864471,123.706680 196.005737,125.870125 
	C195.248337,134.146225 194.490921,142.422318 193.733521,150.698410 
	C204.373978,139.343353 208.078568,125.668953 209.180496,110.132515 
	C209.166748,104.761276 209.153000,99.390030 209.572037,93.329239 
	C209.572037,87.305153 209.572037,81.281075 209.572037,76.966080 
	C202.544113,85.332748 194.727936,94.637825 186.312881,104.231270 
	C179.503616,110.373581 173.095901,116.818420 169.288208,125.908562 
	C171.664261,125.420296 173.278061,125.088669 175.380081,125.402794 
	C177.877472,125.840630 180.374863,126.278458 182.274918,127.089226 
	C180.521286,127.738960 178.767639,128.388687 176.706146,128.579895 
	C176.132553,128.978775 175.558945,129.377640 174.137985,130.044205 
	C172.690521,130.241837 171.243073,130.439468 169.840683,130.113373 
	C169.749710,130.022278 169.658737,129.931168 169.567749,129.840073 
	C169.526291,130.131958 169.484833,130.423859 169.103165,131.364548 
	C161.046738,133.910355 152.990326,136.456161 144.860016,138.066879 
	C144.844635,118.807144 144.693161,99.545662 144.939774,80.289276 
	C144.983963,76.837906 143.907181,75.118134 140.972198,73.299347 
	C140.998978,72.785759 141.025772,72.272179 141.769531,71.884796 
	C142.307632,71.468636 143.219162,71.115234 143.301971,70.622551 
	C143.450241,69.740334 143.099579,68.774269 143.817184,67.997604 
	C145.826889,68.229385 147.836578,68.461166 150.607910,68.955536 
	C154.075867,68.638962 157.543823,68.322395 161.546570,68.272400 
	C162.162247,68.413704 162.777908,68.555008 163.393585,68.696312 
	C163.470993,68.450714 163.548416,68.205116 163.625824,67.959518 
	C162.797897,67.615761 161.969955,67.272011 161.071747,66.969910 
	C161.071747,66.969910 161.058472,66.889290 161.056946,66.204308 
	C161.714005,65.131149 162.371078,64.057999 163.683151,63.189228 
	C165.088272,63.903889 166.493393,64.618546 168.281998,65.886459 
	C172.185913,67.556160 176.089813,69.225861 180.626846,71.293564 
	C185.588989,72.716690 190.551132,74.139809 195.513275,75.562935 
	C195.706726,75.089798 195.900162,74.616661 196.093613,74.143524 
	C195.170212,72.852585 194.246811,71.561646 194.163376,70.072479 
	C194.788696,68.329277 195.414032,66.586067 196.785843,64.959091 
	C205.653824,69.108269 214.713150,69.429581 224.798477,66.496307 
	C218.230103,60.373768 210.991196,57.690193 202.858276,55.904812 
	C199.852921,54.156025 196.847565,52.407234 194.382874,50.159100 
	C197.534790,48.286720 202.726410,49.665318 203.930191,44.114441 
	C198.140625,44.367367 192.584991,44.540257 187.039429,44.878326 
	C183.671036,45.083675 180.318192,45.544235 176.078094,45.970970 
	C172.636353,46.428780 169.194611,46.886589 165.013306,47.170910 
	C164.339462,47.721378 163.665619,48.271851 162.421219,48.938923 
	C162.247467,48.852364 162.073730,48.765808 161.644592,48.131660 
	C160.980301,47.547680 160.316010,46.963699 159.651718,46.379715 
	C159.101089,47.251755 158.550476,48.123795 157.324677,49.382710 
	C155.540359,49.700512 153.756027,50.018314 151.931870,49.532085 
	C151.324615,47.245384 150.717377,44.958687 150.483444,42.104034 
	C151.653992,41.068592 152.824539,40.033146 154.578445,39.254032 
	C156.052948,38.168377 157.527466,37.082718 159.249237,36.408058 
	C159.598740,36.392899 159.948227,36.377743 160.297729,36.362587 
	C159.864090,36.242764 159.430466,36.122940 158.536255,34.946278 
	C158.287155,34.653679 158.038055,34.361080 157.925476,33.892155 
	C157.925476,33.892155 158.193283,33.643280 158.716644,33.170296 
	C159.002853,32.193790 159.289062,31.217287 159.575272,30.240782 
	C159.054108,30.130819 158.532944,30.020859 158.011780,29.910896 
	C158.011780,30.989948 158.011780,32.069000 157.249893,33.002190 
	C154.409683,33.222939 151.291428,32.768574 148.785370,33.800682 
	C143.025726,36.172771 137.564133,39.268600 131.319153,41.775543 
	C127.871681,33.534016 124.424217,25.292484 120.975746,16.392326 
	C119.996613,16.268360 119.017487,16.144394 117.433243,16.000641 
	C117.029709,15.996377 116.626175,15.992113 116.028709,15.279243 
	C115.658424,14.260159 115.288139,13.241074 114.724998,11.691231 
	C110.234734,20.963083 106.110306,29.479542 101.395470,38.055008 
	C101.274689,38.706818 101.153908,39.358631 100.992378,40.579876 
	C100.589203,41.160938 100.186020,41.742004 99.250343,42.040375 
	C99.104668,42.021687 98.958984,42.003002 98.813309,41.984318 
	C98.853958,42.029446 98.887321,42.102123 98.936478,42.115139 
	C99.214180,42.188667 99.495667,42.247875 99.310471,43.177670 
	C99.036781,43.357750 98.763084,43.537834 98.069611,42.923088 
	C96.506844,42.668842 93.937698,41.719994 93.552307,42.278370 
	C91.701927,44.959297 90.441765,48.047588 88.837234,51.470985 
	C88.653954,51.777222 88.386162,51.958885 87.570221,52.202545 
	C87.275848,52.395863 87.090721,52.664486 87.000854,53.000626 
	C87.000854,53.000626 87.008415,53.015636 86.261497,53.008339 
	C84.828522,54.182827 83.068672,55.125027 82.033272,56.582043 
	C80.109337,59.289421 78.112541,59.781712 75.397064,57.919369 
	C74.317757,57.179150 73.108589,56.628269 71.958885,55.248833 
	C72.358246,53.834675 72.757607,52.420513 73.832108,50.848515 
	C73.902756,49.657597 73.973404,48.466682 74.044044,47.275761 
	C73.019379,48.031620 71.994713,48.787479 70.279686,49.754547 
	C60.281628,57.474728 52.598866,66.982903 47.383961,79.174088 
	C47.257149,79.782852 47.130333,80.391609 46.477459,81.450142 
	C45.972576,82.962883 45.467697,84.475616 44.431637,86.414368 
	C44.295547,87.278290 44.159454,88.142212 43.767376,89.604767 
	C42.849327,90.738998 41.931282,91.873222 40.513329,93.474342 
	C38.128994,96.698219 34.116932,99.068909 34.391991,104.443726 
	C33.935307,107.001297 33.478622,109.558876 32.693359,112.613678 
	C32.217213,112.968544 31.741070,113.323410 30.990454,112.923401 
	C30.266056,111.595444 29.541656,110.267494 28.880466,108.119499 
	C29.841854,101.751053 30.803242,95.382599 31.981993,88.148643 
	C31.979292,84.096794 31.976593,80.044945 32.187664,75.869949 
	C32.187664,75.869949 32.182133,75.595909 32.182133,75.595909 
	C32.182133,75.595909 32.030903,76.046684 31.344608,76.154465 
	C28.871092,80.099800 26.397575,84.045135 23.540150,88.586754 
	C13.622652,108.308266 18.260389,129.441910 16.837143,151.366821 
	C17.910772,149.735245 18.176350,149.365005 18.408051,148.974655 
	C24.848289,138.125107 32.173618,128.094299 42.169353,120.069237 
	C48.376041,115.086197 53.392689,108.850113 56.767323,100.744766 
	C54.458099,101.055046 52.683533,101.293488 50.932381,100.751152 
	C50.720131,98.651810 48.668453,95.470985 53.542427,96.291893 
	C53.613823,96.303909 53.882221,95.146240 54.716824,94.594337 
	C55.806652,94.445778 56.896481,94.297218 58.096760,94.755249 
	C58.707672,95.116997 59.318584,95.478752 59.929501,95.840500 
	C59.903324,95.134811 59.877144,94.429131 60.495213,93.312737 
	C66.576019,91.188133 72.638000,89.007111 78.747475,86.968422 
	C80.993286,86.219017 83.351372,85.806061 85.621834,86.145798 
	C85.628532,110.075310 85.635239,134.004822 84.898911,157.764511 
	C77.813438,157.503189 70.727966,157.241882 62.857891,156.979889 
	C60.768154,157.379150 58.678413,157.778397 55.904774,158.057449 
	C47.734837,154.198624 39.427567,150.799316 28.966379,149.774872 
	C31.823305,153.075058 33.843357,155.408524 35.032372,157.851273 
	C33.482372,157.932602 31.921904,157.932068 30.386610,158.128403 
	C29.571018,158.232697 28.799084,158.678360 27.224241,158.931381 
	C19.166777,156.100342 11.102930,155.822327 2.090114,158.520752 
	C10.551211,166.098038 19.690479,168.922714 30.203362,169.320557 
	C30.467272,171.205017 30.731182,173.089493 30.431326,175.393219 
	C27.731213,176.742020 25.031099,178.090820 21.108213,180.050446 
	C37.328400,183.390656 51.537006,180.622513 65.376938,176.087219 
	C68.432251,175.086014 70.911102,173.899109 74.014580,175.765884 
	C75.447456,178.878189 75.455612,181.996368 73.787750,185.732971 
	C71.870720,188.218506 69.953690,190.704041 68.036659,193.189575 
	C68.296188,193.492920 68.555710,193.796265 68.815239,194.099594 
	C74.461258,192.476059 80.107285,190.852524 85.772614,190.137085 
	C85.772614,198.712906 85.772614,207.288727 85.772614,216.202789 
	C97.844284,213.668793 109.392929,211.244583 120.910622,208.826874 
	C120.910622,201.244949 120.910622,194.124344 121.182541,186.422134 
	C122.068886,186.073547 122.955231,185.724976 123.733925,186.175842 
	C123.790924,187.783920 123.847923,189.391998 123.649040,191.415436 
	C123.649040,191.415436 123.728859,191.896729 123.478920,192.103470 
	C123.364418,192.455322 123.435738,192.742096 123.759285,193.076401 
M165.818726,43.545242 
	C165.387711,43.592960 164.956680,43.640682 164.525665,43.688400 
	C164.703613,44.059044 164.881546,44.429684 165.059479,44.800327 
	C165.442062,44.512875 165.824661,44.225422 165.818726,43.545242 
M98.589554,34.517601 
	C98.589554,34.517601 98.475906,34.585636 98.589554,34.517601 
M159.591202,39.517216 
	C159.591202,39.517216 159.478333,39.584747 159.591202,39.517216 
M26.481062,156.590317 
	C26.481062,156.590317 26.414591,156.479431 26.481062,156.590317 
M98.516182,36.409607 
	C98.516182,36.409607 98.585785,36.525055 98.516182,36.409607 
M54.588215,98.519112 
	C54.588215,98.519112 54.476852,98.586494 54.588215,98.519112 
z"/>
<path fill="#040404" opacity="1.000000" stroke="none" 
	d="
M85.641937,157.934341 
	C85.635239,134.004822 85.628532,110.075310 85.783676,85.236511 
	C85.747093,82.754776 85.548676,81.182343 85.501358,79.235535 
	C86.779823,77.613731 87.713814,75.574554 89.065254,75.244469 
	C99.609840,72.668961 110.234688,70.422012 120.891907,68.534485 
	C120.902168,95.996712 120.855263,122.998062 120.635193,150.104721 
	C120.244476,150.383728 120.093079,150.603058 119.609711,150.923172 
	C118.140846,150.987335 117.070122,150.996384 115.769226,150.729706 
	C111.128899,147.572418 107.987907,149.959946 104.729195,153.051483 
	C104.085503,153.135910 103.714775,153.160843 102.911606,153.127197 
	C101.035301,153.794464 99.591446,154.520279 97.990540,155.487030 
	C98.416321,156.865509 98.784378,158.780258 99.617905,159.010590 
	C104.015213,160.225723 108.529861,161.016235 113.002670,162.327301 
	C112.997459,163.445663 112.993385,164.190781 112.565277,164.969986 
	C110.677788,164.849518 109.153648,164.905884 107.761047,164.505127 
	C100.369804,162.378113 93.011589,160.136353 85.641937,157.934341 
M95.849083,119.728676 
	C96.092232,120.180878 96.335381,120.633072 96.396568,121.790443 
	C96.017273,126.141312 99.394859,124.940887 101.505165,124.954514 
	C103.804001,124.969360 106.863182,125.016701 106.187958,120.787598 
	C108.123466,119.455467 110.058983,118.123329 112.449829,116.281891 
	C113.843613,111.898346 113.904984,107.827400 110.044388,104.468987 
	C107.185944,101.982384 104.167175,101.762604 100.358223,103.580879 
	C100.238991,103.721298 100.119759,103.861710 99.480095,103.985825 
	C99.315292,104.040260 99.150482,104.094688 98.494476,104.041908 
	C97.980476,104.658737 97.466484,105.275566 96.435066,106.158569 
	C96.351875,106.333771 96.268677,106.508980 95.776344,106.986794 
	C91.782791,113.135269 91.637093,115.510117 95.382935,118.956734 
	C95.382935,118.956734 95.825081,119.115173 95.849083,119.728676 
M95.010475,82.125145 
	C95.010475,86.842392 95.010475,91.559639 95.010475,96.276886 
	C95.466270,96.466141 95.922073,96.655388 96.377869,96.844643 
	C97.200317,95.788185 98.647942,94.779228 98.732491,93.666695 
	C99.032051,89.724815 98.938377,85.745293 98.815620,81.785561 
	C98.790939,80.989296 97.985756,80.217232 97.540436,79.434006 
	C96.706833,80.043800 95.873238,80.653595 95.010475,82.125145 
M107.046974,81.713760 
	C107.046974,85.720352 107.046974,89.726944 107.046974,94.059357 
	C111.193703,92.254784 112.095535,86.315193 109.129364,76.495888 
	C108.430168,77.924446 107.730965,79.353004 107.046974,81.713760 
M104.821014,80.028648 
	C104.110870,79.387321 103.400726,78.746002 102.690582,78.104675 
	C102.115929,78.803108 101.064835,79.487259 101.043419,80.202263 
	C100.896950,85.091583 100.966621,89.987389 100.966621,94.881104 
	C101.527397,95.087341 102.088165,95.293579 102.648941,95.499825 
	C103.364738,94.278572 104.595589,93.099014 104.698448,91.828163 
	C104.990883,88.214912 104.823112,84.564407 104.821014,80.028648 
z"/>
<path fill="#040404" opacity="1.000000" stroke="none" 
	d="
M140.968353,74.070793 
	C143.907181,75.118134 144.983963,76.837906 144.939774,80.289276 
	C144.693161,99.545662 144.844635,118.807144 144.618332,138.716095 
	C141.754059,141.307205 139.131454,143.249084 135.410461,146.004272 
	C139.448608,146.004272 141.905670,146.004272 144.299286,146.357513 
	C144.400513,147.801514 144.565201,148.892273 144.286560,149.987091 
	C138.238083,150.293808 132.632950,150.596466 126.690994,150.948700 
	C125.901031,150.984802 125.447861,150.971344 124.884125,150.744263 
	C124.570259,150.266922 124.309357,150.086487 123.894257,149.529968 
	C123.817856,122.248077 123.838036,95.425560 124.246246,68.677429 
	C127.089211,69.495506 129.544144,70.239197 132.254883,71.241402 
	C135.329910,72.356880 138.149124,73.213837 140.968353,74.070793 
z"/>
<path fill="#080606" opacity="1.000000" stroke="none" 
	d="
M99.782845,42.323067 
	C100.186020,41.742004 100.589203,41.160938 101.286362,40.161896 
	C101.715523,39.161278 101.850693,38.578640 101.985870,37.996002 
	C106.110306,29.479542 110.234734,20.963083 114.724998,11.691231 
	C115.288139,13.241074 115.658424,14.260159 116.058044,16.048790 
	C117.646774,32.844376 119.206169,48.870411 120.813179,65.385788 
	C109.412094,67.908524 98.187843,70.392128 86.981483,72.509674 
	C87.737801,69.815216 88.476234,67.486809 89.209335,65.113380 
	C89.204010,65.068352 89.158997,65.147079 89.405098,65.054390 
	C89.782539,64.644432 89.913872,64.327164 90.115059,63.850777 
	C90.184914,63.691669 90.178314,63.344196 90.447525,63.114532 
	C91.172104,61.585201 91.627472,60.285526 92.149521,58.853767 
	C92.216194,58.721684 92.189789,58.426945 92.504158,58.251743 
	C94.490143,53.687759 96.161766,49.298977 97.894119,44.744987 
	C98.133026,44.292492 98.311211,44.005203 98.489395,43.717911 
	C98.763084,43.537834 99.036781,43.357750 99.512733,42.751732 
	C99.714996,42.325798 99.782845,42.323067 99.782845,42.323067 
z"/>
<path fill="#050303" opacity="1.000000" stroke="none" 
	d="
M120.910622,187.003738 
	C120.910622,194.124344 120.910622,201.244949 120.910622,208.826874 
	C109.392929,211.244583 97.844284,213.668793 85.772614,216.202789 
	C85.772614,207.288727 85.772614,198.712906 85.982925,189.393585 
	C90.430008,186.075760 94.666794,183.501434 99.207993,181.080414 
	C101.040611,181.986984 102.568810,182.740234 104.097000,183.493484 
	C104.347412,182.926361 104.597824,182.359238 104.848236,181.792114 
	C103.666496,181.072098 102.484764,180.352081 101.563492,179.385254 
	C104.508057,177.517166 107.192154,175.895905 109.901695,174.736176 
	C109.797653,177.766663 109.964188,180.176636 112.988953,181.366333 
	C110.735786,184.176193 107.221962,186.146881 109.934914,190.769424 
	C113.559006,189.526016 117.234810,188.264877 120.910622,187.003738 
z"/>
<path fill="#858585" opacity="1.000000" stroke="none" 
	d="
M31.764629,89.014153 
	C30.803242,95.382599 29.841854,101.751053 28.605421,108.806953 
	C27.830379,112.059509 27.330383,114.624611 26.830387,117.189713 
	C27.128082,117.303375 27.425779,117.417046 27.723475,117.530708 
	C28.903961,116.246567 30.084446,114.962425 31.264927,113.678284 
	C31.741070,113.323410 32.217213,112.968544 33.186607,112.259018 
	C39.422886,108.446877 45.165924,104.989403 50.908962,101.531929 
	C52.683533,101.293488 54.458099,101.055046 56.767323,100.744766 
	C53.392689,108.850113 48.376041,115.086197 42.169353,120.069237 
	C32.173618,128.094299 24.848289,138.125107 18.408051,148.974655 
	C18.176350,149.365005 17.910772,149.735245 16.837143,151.366821 
	C18.260389,129.441910 13.622652,108.308266 24.087326,88.320740 
	C27.011211,88.374535 29.387920,88.694344 31.764629,89.014153 
z"/>
<path fill="#8C8C8C" opacity="1.000000" stroke="none" 
	d="
M144.362732,146.004272 
	C141.905670,146.004272 139.448608,146.004272 135.410461,146.004272 
	C139.131454,143.249084 141.754059,141.307205 144.655273,139.183624 
	C152.990326,136.456161 161.046738,133.910355 169.357635,131.012573 
	C169.612106,130.660614 169.795609,130.637115 169.795609,130.637115 
	C171.243073,130.439468 172.690521,130.241837 174.849915,129.936096 
	C176.045914,129.564804 176.529953,129.301605 177.014008,129.038422 
	C178.767639,128.388687 180.521286,127.738960 182.901154,126.819260 
	C186.018051,125.016304 188.508682,123.483322 190.999329,121.950333 
	C190.773224,123.065079 190.547134,124.179825 190.021362,125.924080 
	C188.043213,129.509415 186.364731,132.465225 184.686264,135.421051 
	C180.782410,142.997955 177.455765,150.954559 172.798035,158.035583 
	C168.838318,164.055481 163.404724,169.121719 158.483643,174.481750 
	C157.331619,175.736542 155.615829,176.473724 154.159393,177.449051 
	C153.753448,177.178604 153.347504,176.908142 152.941559,176.637695 
	C154.505035,172.063522 156.068527,167.489365 157.909668,162.292419 
	C162.343948,154.825409 166.500595,147.981155 170.362350,141.622452 
	C161.833527,143.059845 153.098129,144.532059 144.362732,146.004272 
z"/>
<path fill="#616161" opacity="1.000000" stroke="none" 
	d="
M109.876251,174.274628 
	C107.192154,175.895905 104.508057,177.517166 101.303085,179.459030 
	C100.155991,180.162109 99.529778,180.544601 98.903572,180.927109 
	C94.666794,183.501434 90.430008,186.075760 85.973267,188.939545 
	C80.107285,190.852524 74.461258,192.476059 68.815239,194.099594 
	C68.555710,193.796265 68.296188,193.492920 68.036659,193.189575 
	C69.953690,190.704041 71.870720,188.218506 74.229431,185.262390 
	C78.416939,181.890045 82.162781,178.988281 86.256882,175.978058 
	C89.685036,174.425613 92.764946,172.981613 95.844849,171.537598 
	C95.801865,171.204803 95.758888,170.871994 95.715904,170.539200 
	C92.540604,170.050919 89.365303,169.562653 86.006989,169.051361 
	C85.823982,169.028351 85.457619,168.985199 85.168289,168.739136 
	C77.800133,164.655579 70.721313,160.818069 63.642494,156.980560 
	C70.727966,157.241882 77.813438,157.503189 85.270424,157.849426 
	C93.011589,160.136353 100.369804,162.378113 107.761047,164.505127 
	C109.153648,164.905884 110.677788,164.849518 112.952309,165.053223 
	C116.758118,164.714798 119.752846,164.327209 123.031212,163.906967 
	C123.505150,163.870895 123.695457,163.867477 123.950256,164.282227 
	C124.069382,166.358719 124.124008,168.017059 123.820992,169.832367 
	C122.945038,170.018341 122.426712,170.047379 121.873901,169.692368 
	C120.470673,169.011047 118.711311,168.028091 117.805801,168.543945 
	C114.988663,170.148819 112.495232,172.321930 109.876251,174.274628 
z"/>
<path fill="#646464" opacity="1.000000" stroke="none" 
	d="
M85.457619,168.985199 
	C85.457619,168.985199 85.823982,169.028351 85.992607,169.471893 
	C86.014870,171.019165 85.868507,172.122894 85.322113,173.133591 
	C81.280975,173.698929 77.639854,174.357300 73.998741,175.015671 
	C70.911102,173.899109 68.432251,175.086014 65.376938,176.087219 
	C51.537006,180.622513 37.328400,183.390656 21.108213,180.050446 
	C25.031099,178.090820 27.731213,176.742020 31.096321,175.167114 
	C40.313610,173.217468 48.865902,171.493942 56.795044,169.895981 
	C50.003452,165.952438 42.933430,161.847214 35.863407,157.741989 
	C33.843357,155.408524 31.823305,153.075058 28.966379,149.774872 
	C39.427567,150.799316 47.734837,154.198624 56.465141,158.399933 
	C64.561363,163.976379 72.597687,168.183060 81.370056,170.994675 
	C83.674271,171.733200 85.197510,171.918976 85.457619,168.985199 
z"/>
<path fill="#030303" opacity="1.000000" stroke="none" 
	d="
M123.904922,191.000076 
	C123.847923,189.391998 123.790924,187.783920 123.973816,185.477814 
	C124.795204,184.417603 125.376694,184.055420 126.112160,183.985046 
	C127.465469,183.147125 128.664810,182.017410 130.074310,180.675064 
	C130.830185,180.227081 131.375900,179.991730 132.107239,180.049042 
	C135.905075,180.828506 136.105835,178.540100 136.091125,175.776016 
	C136.539261,175.431488 136.764801,175.202072 137.199142,174.848450 
	C137.595367,174.461716 137.757874,174.174698 137.971954,173.661392 
	C138.152298,173.149017 138.224915,172.849335 138.527191,172.425934 
	C139.211395,171.881287 139.609772,171.446701 140.213928,170.971802 
	C140.419693,170.931473 140.829178,170.840942 141.118683,170.870209 
	C142.496323,170.928772 143.584488,170.958069 144.672638,170.987366 
	C144.726212,185.341110 144.779785,199.694824 144.452667,214.534973 
	C143.696686,215.414856 143.321396,215.808334 142.946106,216.201797 
	C137.344116,214.269623 131.692322,212.464264 126.181633,210.299667 
	C125.062149,209.859924 123.838005,208.108398 123.756752,206.888702 
	C123.470726,202.595276 123.661346,198.270065 124.056038,193.377045 
	C125.062592,192.396973 125.684235,191.996765 126.901497,191.213089 
	C125.415871,191.107483 124.660400,191.053787 123.904922,191.000076 
M142.523956,212.416367 
	C142.523956,212.416367 142.589722,212.523163 142.523956,212.416367 
z"/>
<path fill="#F5F2F0" opacity="1.000000" stroke="none" 
	d="
M86.963593,72.875732 
	C98.187843,70.392128 109.412094,67.908524 120.813179,65.385788 
	C119.206169,48.870411 117.646774,32.844376 116.155014,16.403091 
	C116.626175,15.992113 117.029709,15.996377 117.864594,16.239601 
	C118.584053,16.671562 118.872162,16.864567 119.097855,17.477640 
	C120.302841,30.090887 122.248932,42.264839 122.595093,54.484112 
	C122.819656,62.411026 125.151955,67.229004 132.959961,69.069992 
	C132.573151,69.900726 132.286118,70.441803 131.999084,70.982880 
	C129.544144,70.239197 127.089211,69.495506 124.005402,68.471207 
	C122.529274,68.151596 121.682014,68.112595 120.834747,68.073593 
	C110.234688,70.422012 99.609840,72.668961 89.065254,75.244469 
	C87.713814,75.574554 86.779823,77.613731 85.081711,79.266678 
	C78.519318,80.421608 72.495285,80.981712 66.549377,81.998657 
	C63.479412,82.523720 60.566696,83.923019 57.548828,84.811455 
	C54.905468,85.589645 54.938053,83.879463 55.487091,81.901886 
	C57.308548,80.342941 59.304966,79.217834 60.284630,77.509613 
	C64.343208,70.432739 68.094444,63.179600 71.958542,55.991188 
	C73.108589,56.628269 74.317757,57.179150 75.397064,57.919369 
	C78.112541,59.781712 80.109337,59.289421 82.033272,56.582043 
	C83.068672,55.125027 84.828522,54.182827 86.544662,53.340187 
	C83.073196,58.682442 79.344025,63.712254 75.550331,68.692917 
	C74.189972,70.478912 72.673958,72.146355 71.228989,73.867905 
	C73.495834,73.858749 75.762680,73.849586 78.452759,73.897034 
	C81.571854,73.594337 84.267723,73.235031 86.963593,72.875732 
z"/>
<path fill="#080808" opacity="1.000000" stroke="none" 
	d="
M133.059753,68.780350 
	C125.151955,67.229004 122.819656,62.411026 122.595093,54.484112 
	C122.248932,42.264839 120.302841,30.090887 119.405396,17.441818 
	C120.175819,17.007605 120.576286,17.029280 120.976753,17.050955 
	C124.424217,25.292484 127.871681,33.534016 131.680756,42.291756 
	C133.369354,45.540241 134.696335,48.272522 135.871368,51.345734 
	C136.467880,53.163750 137.216339,54.640831 137.979401,56.492828 
	C139.648483,60.526241 141.302963,64.184746 142.957458,67.843246 
	C143.099579,68.774269 143.450241,69.740334 143.301971,70.622551 
	C143.219162,71.115234 142.307632,71.468636 141.216278,71.526703 
	C138.128601,70.372528 135.594177,69.576439 133.059753,68.780350 
z"/>
<path fill="#9D9D9D" opacity="1.000000" stroke="none" 
	d="
M174.891876,124.757034 
	C173.278061,125.088669 171.664261,125.420296 169.288208,125.908562 
	C173.095901,116.818420 179.503616,110.373581 186.933319,104.226776 
	C189.858765,103.177124 192.210175,101.174858 194.459244,101.283867 
	C199.305710,101.518761 201.855118,98.622673 204.833786,95.803497 
	C205.887802,94.805901 207.682617,94.591003 209.139252,94.018784 
	C209.153000,99.390030 209.166748,104.761276 208.743500,110.604874 
	C203.246353,112.871597 205.454468,116.819077 205.685837,118.595627 
	C202.970932,120.889793 201.232452,122.476288 199.358749,123.882614 
	C198.640259,124.421890 197.613083,124.549866 196.788956,124.471909 
	C197.445862,121.329124 198.040375,118.579681 198.944794,116.014542 
	C199.845581,117.011375 200.436462,117.823906 201.027328,118.636444 
	C201.416199,118.201309 201.805084,117.766174 202.193954,117.331047 
	C201.098541,116.550377 200.003143,115.769707 198.915024,114.602493 
	C199.234344,112.331482 199.546371,110.447006 199.706116,109.482231 
	C191.644684,114.444572 183.268280,119.600807 174.891876,124.757034 
M196.525009,106.623611 
	C196.470291,106.837769 196.415588,107.051926 196.360886,107.266090 
	C196.495438,107.128517 196.630005,106.990952 196.525009,106.623611 
z"/>
<path fill="#7D7C7D" opacity="1.000000" stroke="none" 
	d="
M55.194492,82.067574 
	C54.938053,83.879463 54.905468,85.589645 57.548828,84.811455 
	C60.566696,83.923019 63.479412,82.523720 66.549377,81.998657 
	C72.495285,80.981712 78.519318,80.421608 84.930618,79.641037 
	C85.548676,81.182343 85.747093,82.754776 85.801880,84.783424 
	C83.351372,85.806061 80.993286,86.219017 78.747475,86.968422 
	C72.638000,89.007111 66.576019,91.188133 59.853363,93.542984 
	C58.803112,93.898384 58.394714,94.023521 57.986313,94.148666 
	C56.896481,94.297218 55.806652,94.445778 54.096260,94.382614 
	C51.782898,94.566711 49.868492,94.586029 48.438206,95.427856 
	C43.860550,98.122169 39.462280,101.121254 34.994766,104.002701 
	C34.116932,99.068909 38.128994,96.698219 41.031242,93.466553 
	C41.978493,94.540726 42.407825,95.622688 43.029312,97.188896 
	C45.683716,94.264763 45.594006,91.714127 44.023361,89.006134 
	C44.159454,88.142212 44.295547,87.278290 45.100956,86.203537 
	C46.846748,85.995247 47.923222,85.997772 49.019287,86.299423 
	C49.363335,87.064568 49.687786,87.530586 50.176884,87.907982 
	C50.231071,87.549332 50.120617,87.279320 50.006546,86.761932 
	C50.002930,86.514572 49.994701,86.019859 49.999191,85.763756 
	C50.004696,85.336891 50.005703,85.166130 50.347443,84.945740 
	C52.190277,83.953255 53.692387,83.010414 55.194492,82.067574 
M46.730816,88.683601 
	C46.818310,89.122604 46.905807,89.561607 47.333591,89.824982 
	C47.398232,89.716255 47.542473,89.545479 47.514183,89.509193 
	C47.365982,89.319061 47.174061,89.163002 46.730816,88.683601 
z"/>
<path fill="#777777" opacity="1.000000" stroke="none" 
	d="
M48.999695,86.000305 
	C47.923222,85.997772 46.846748,85.995247 45.366547,85.990540 
	C45.467697,84.475616 45.972576,82.962883 47.021759,81.207550 
	C47.667522,80.234161 47.768982,79.503365 47.870445,78.772568 
	C52.598866,66.982903 60.281628,57.474728 70.913918,49.831215 
	C72.084419,50.274036 72.620689,50.640194 73.156967,51.006355 
	C72.757607,52.420513 72.358246,53.834675 71.958710,55.620010 
	C68.094444,63.179600 64.343208,70.432739 60.284630,77.509613 
	C59.304966,79.217834 57.308548,80.342941 55.487091,81.901886 
	C53.692387,83.010414 52.190277,83.953255 50.122719,85.050125 
	C49.276516,85.404213 49.089756,85.670250 48.998444,86.001137 
	C48.999901,86.000000 48.999695,86.000305 48.999695,86.000305 
z"/>
<path fill="#414141" opacity="1.000000" stroke="none" 
	d="
M165.752869,47.344402 
	C169.194611,46.886589 172.636353,46.428780 176.676697,46.179420 
	C178.455307,47.866726 179.635315,49.345581 180.807617,50.814770 
	C180.008514,50.943787 178.965424,51.112194 177.596222,51.333256 
	C178.958954,51.940754 179.958206,52.386211 180.583801,52.916786 
	C177.700821,53.418926 175.161926,53.711342 172.692657,54.297215 
	C171.074295,54.681206 169.556641,55.489674 167.993561,56.488953 
	C167.961670,59.690987 167.930099,62.512096 167.898514,65.333206 
	C166.493393,64.618546 165.088272,63.903889 163.186005,62.823677 
	C161.454132,61.717766 160.219437,60.977409 158.673645,60.054909 
	C154.083786,57.750488 149.805008,55.628204 144.297104,52.896271 
	C147.907700,51.691822 149.939713,51.013973 151.971710,50.336121 
	C153.756027,50.018314 155.540359,49.700512 157.979797,49.317406 
	C159.723267,49.061153 160.811630,48.870201 161.899979,48.679245 
	C162.073730,48.765808 162.247467,48.852364 163.048492,48.943184 
	C164.368134,48.413101 165.060501,47.878750 165.752869,47.344402 
z"/>
<path fill="#0A0A0A" opacity="1.000000" stroke="none" 
	d="
M203.037048,56.535397 
	C210.991196,57.690193 218.230103,60.373768 224.798477,66.496307 
	C214.713150,69.429581 205.653824,69.108269 196.225784,64.611252 
	C191.352005,62.093361 187.038284,59.923309 182.724564,57.753258 
	C182.791489,57.347305 182.858398,56.941349 182.925323,56.535397 
	C189.629227,56.535397 196.333145,56.535397 203.037048,56.535397 
z"/>
<path fill="#0A0A0A" opacity="1.000000" stroke="none" 
	d="
M29.927795,168.761185 
	C19.690479,168.922714 10.551211,166.098038 2.090114,158.520752 
	C11.102930,155.822327 19.166777,156.100342 27.820265,159.230957 
	C33.468910,162.112320 38.521530,164.694122 44.181633,167.586319 
	C38.927822,168.019363 34.427807,168.390274 29.927795,168.761185 
z"/>
<path fill="#F4EFED" opacity="1.000000" stroke="none" 
	d="
M144.299286,146.357513 
	C153.098129,144.532059 161.833527,143.059845 170.362350,141.622452 
	C166.500595,147.981155 162.343948,154.825409 158.001801,161.906342 
	C156.389023,160.918045 154.961761,159.693069 153.534515,158.468094 
	C152.999771,158.483826 152.465027,158.499557 151.930283,158.515289 
	C151.746552,161.727783 151.562820,164.940262 151.419693,167.443008 
	C149.608444,167.586838 147.680557,167.739944 145.334351,167.681168 
	C144.867966,167.282516 144.819901,167.095718 144.866760,166.552277 
	C145.649124,164.804565 146.104736,163.219833 147.071640,162.062134 
	C149.173996,159.544937 151.582352,157.285721 153.762680,154.829666 
	C154.321976,154.199646 154.498108,153.229507 154.850281,152.415619 
	C153.953903,152.236023 153.062302,151.935760 152.160248,151.900223 
	C149.774826,151.806213 147.384888,151.826859 144.949921,151.500168 
	C144.845352,150.793320 144.787613,150.388184 144.729874,149.983032 
	C144.565201,148.892273 144.400513,147.801514 144.299286,146.357513 
z"/>
<path fill="#969696" opacity="1.000000" stroke="none" 
	d="
M196.726562,124.865265 
	C197.613083,124.549866 198.640259,124.421890 199.358749,123.882614 
	C201.232452,122.476288 202.970932,120.889793 205.685837,118.595627 
	C205.454468,116.819077 203.246353,112.871597 208.678116,111.035400 
	C208.078568,125.668953 204.373978,139.343353 193.733521,150.698410 
	C194.490921,142.422318 195.248337,134.146225 196.184998,125.399223 
	C196.364243,124.928322 196.726562,124.865265 196.726562,124.865265 
z"/>
<path fill="#ECECEC" opacity="1.000000" stroke="none" 
	d="
M202.947662,56.220104 
	C196.333145,56.535397 189.629227,56.535397 182.925323,56.535397 
	C182.858398,56.941349 182.791489,57.347305 182.724564,57.753258 
	C187.038284,59.923309 191.352005,62.093361 195.852539,64.553139 
	C195.414032,66.586067 194.788696,68.329277 193.451233,70.020302 
	C191.308640,68.986252 189.859695,68.030060 188.451813,67.016800 
	C186.010590,65.259842 183.594772,63.467560 180.933548,61.434433 
	C176.463821,59.488529 172.228851,57.798279 167.993881,56.108028 
	C169.556641,55.489674 171.074295,54.681206 172.692657,54.297215 
	C175.161926,53.711342 177.700821,53.418926 181.007751,53.023010 
	C185.817627,52.248898 189.829926,51.453674 193.842209,50.658447 
	C196.847565,52.407234 199.852921,54.156025 202.947662,56.220104 
z"/>
<path fill="#393939" opacity="1.000000" stroke="none" 
	d="
M136.023315,51.004799 
	C134.696335,48.272522 133.369354,45.540241 132.011963,42.439323 
	C137.564133,39.268600 143.025726,36.172771 148.785370,33.800682 
	C151.291428,32.768574 154.409683,33.222939 157.645050,33.210350 
	C158.040192,33.418510 158.193283,33.643280 158.193283,33.643280 
	C158.193283,33.643280 157.925476,33.892155 157.582108,34.093033 
	C156.157516,35.861839 155.076309,37.429771 153.995087,38.997704 
	C152.824539,40.033146 151.653992,41.068592 150.016144,42.520432 
	C145.040329,45.626152 140.531815,48.315475 136.023315,51.004799 
z"/>
<path fill="#A5A5A5" opacity="1.000000" stroke="none" 
	d="
M209.355652,93.674011 
	C207.682617,94.591003 205.887802,94.805901 204.833786,95.803497 
	C201.855118,98.622673 199.305710,101.518761 194.459244,101.283867 
	C192.210175,101.174858 189.858765,103.177124 187.232758,104.082596 
	C194.727936,94.637825 202.544113,85.332748 209.572037,76.966080 
	C209.572037,81.281075 209.572037,87.305153 209.355652,93.674011 
z"/>
<path fill="#ECECEC" opacity="1.000000" stroke="none" 
	d="
M30.065578,169.040863 
	C34.427807,168.390274 38.927822,168.019363 44.181633,167.586319 
	C38.521530,164.694122 33.468910,162.112320 28.211864,159.250214 
	C28.799084,158.678360 29.571018,158.232697 30.386610,158.128403 
	C31.921904,157.932068 33.482372,157.932602 35.447891,157.796631 
	C42.933430,161.847214 50.003452,165.952438 56.795044,169.895981 
	C48.865902,171.493942 40.313610,173.217468 31.378204,174.957489 
	C30.731182,173.089493 30.467272,171.205017 30.065578,169.040863 
z"/>
<path fill="#A61F1E" opacity="1.000000" stroke="none" 
	d="
M78.029526,73.840424 
	C75.762680,73.849586 73.495834,73.858749 71.228989,73.867905 
	C72.673958,72.146355 74.189972,70.478912 75.550331,68.692917 
	C79.344025,63.712254 83.073196,58.682442 86.918121,53.343834 
	C87.008415,53.015636 87.000854,53.000626 87.259331,52.933907 
	C87.689827,52.583447 87.861839,52.299713 88.033859,52.015976 
	C88.386162,51.958885 88.653954,51.777222 89.175934,51.138824 
	C89.986069,50.502594 90.457489,50.198517 91.262825,49.961723 
	C95.853500,52.541664 91.411713,55.668617 92.189789,58.426945 
	C92.189789,58.426945 92.216194,58.721684 91.813896,59.011093 
	C91.000504,60.648403 90.589409,61.996300 90.178314,63.344196 
	C90.178314,63.344196 90.184914,63.691669 89.882248,63.963577 
	C89.439384,64.539345 89.299194,64.843216 89.158997,65.147079 
	C89.158997,65.147079 89.204010,65.068352 88.859825,65.200745 
	C86.405487,69.089218 84.311745,72.839348 79.008621,72.317345 
	C78.734886,72.290398 78.358253,73.308746 78.029526,73.840424 
z"/>
<path fill="#F2F2F2" opacity="1.000000" stroke="none" 
	d="
M135.871368,51.345734 
	C140.531815,48.315475 145.040329,45.626152 149.829483,42.804405 
	C150.717377,44.958687 151.324615,47.245384 151.951782,49.934105 
	C149.939713,51.013973 147.907700,51.691822 144.297104,52.896271 
	C149.805008,55.628204 154.083786,57.750488 158.575745,60.420479 
	C157.642441,61.391201 156.495956,61.814217 155.029846,62.142948 
	C152.137711,61.083286 149.565231,60.117905 146.658798,59.001953 
	C143.538162,57.940231 140.751480,57.029072 137.964798,56.117912 
	C137.216339,54.640831 136.467880,53.163750 135.871368,51.345734 
z"/>
<path fill="#4D4D4D" opacity="1.000000" stroke="none" 
	d="
M194.112549,50.408775 
	C189.829926,51.453674 185.817627,52.248898 181.381409,52.937893 
	C179.958206,52.386211 178.958954,51.940754 177.596222,51.333256 
	C178.965424,51.112194 180.008514,50.943787 180.807617,50.814770 
	C179.635315,49.345581 178.455307,47.866726 177.116837,46.139011 
	C180.318192,45.544235 183.671036,45.083675 187.039429,44.878326 
	C192.584991,44.540257 198.140625,44.367367 203.930191,44.114441 
	C202.726410,49.665318 197.534790,48.286720 194.112549,50.408775 
z"/>
<path fill="#F6F6F6" opacity="1.000000" stroke="none" 
	d="
M196.788956,124.471909 
	C196.726562,124.865265 196.364243,124.928322 196.184799,124.968430 
	C194.864471,123.706680 193.723602,122.404839 192.004105,121.140533 
	C191.132233,121.387924 190.980087,121.673065 190.969025,122.033501 
	C190.969025,122.033501 190.960815,121.982773 190.980072,121.966553 
	C188.508682,123.483322 186.018051,125.016304 183.199829,126.632797 
	C180.374863,126.278458 177.877472,125.840630 175.135986,125.079910 
	C183.268280,119.600807 191.644684,114.444572 199.706116,109.482231 
	C199.546371,110.447006 199.234344,112.331482 198.829315,114.807053 
	C198.736298,115.398155 198.634888,115.830246 198.634888,115.830246 
	C198.040375,118.579681 197.445862,121.329124 196.788956,124.471909 
z"/>
<path fill="#484848" opacity="1.000000" stroke="none" 
	d="
M167.993561,56.488953 
	C172.228851,57.798279 176.463821,59.488529 180.781052,61.780170 
	C180.573456,65.219566 180.283585,68.057564 179.993713,70.895569 
	C176.089813,69.225861 172.185913,67.556160 168.090256,65.609833 
	C167.930099,62.512096 167.961670,59.690987 167.993561,56.488953 
z"/>
<path fill="#F2F2F2" opacity="1.000000" stroke="none" 
	d="
M34.693382,104.223213 
	C39.462280,101.121254 43.860550,98.122169 48.438206,95.427856 
	C49.868492,94.586029 51.782898,94.566711 53.767185,94.352676 
	C53.882221,95.146240 53.613823,96.303909 53.542427,96.291893 
	C48.668453,95.470985 50.720131,98.651810 50.920670,101.141541 
	C45.165924,104.989403 39.422886,108.446877 33.350895,112.010406 
	C33.478622,109.558876 33.935307,107.001297 34.693382,104.223213 
z"/>
<path fill="#F2F2F2" opacity="1.000000" stroke="none" 
	d="
M85.168289,168.739136 
	C85.197510,171.918976 83.674271,171.733200 81.370056,170.994675 
	C72.597687,168.183060 64.561363,163.976379 56.807091,158.460037 
	C58.678413,157.778397 60.768154,157.379150 63.250191,156.980225 
	C70.721313,160.818069 77.800133,164.655579 85.168289,168.739136 
z"/>
<path fill="#545454" opacity="1.000000" stroke="none" 
	d="
M180.310272,71.094559 
	C180.283585,68.057564 180.573456,65.219566 181.015808,62.035828 
	C183.594772,63.467560 186.010590,65.259842 188.451813,67.016800 
	C189.859695,68.030060 191.308640,68.986252 193.031250,70.119415 
	C194.246811,71.561646 195.170212,72.852585 196.093613,74.143524 
	C195.900162,74.616661 195.706726,75.089798 195.513275,75.562935 
	C190.551132,74.139809 185.588989,72.716690 180.310272,71.094559 
z"/>
<path fill="#8C2B2D" opacity="1.000000" stroke="none" 
	d="
M131.921600,179.756363 
	C131.375900,179.991730 130.830185,180.227081 129.765869,180.721252 
	C128.150909,181.884445 127.054543,182.788849 125.958183,183.693237 
	C125.376694,184.055420 124.795204,184.417603 124.027649,185.078094 
	C122.955231,185.724976 122.068886,186.073547 121.046585,186.712936 
	C117.234810,188.264877 113.559006,189.526016 109.934914,190.769424 
	C107.221962,186.146881 110.735786,184.176193 113.260544,181.180115 
	C115.397484,178.767792 117.199188,176.890625 119.003105,175.410324 
	C118.990227,176.866257 118.975136,177.925308 118.807556,179.284805 
	C116.693810,181.612915 114.732559,183.640594 112.771301,185.668289 
	C113.302536,186.256699 113.833771,186.845108 114.365005,187.433517 
	C117.257156,185.310455 120.149307,183.187393 123.402817,181.011597 
	C125.505997,180.306717 127.247818,179.654572 129.216080,178.735733 
	C130.350372,178.358810 131.258255,178.248581 132.117264,178.407639 
	C132.019470,179.036728 131.970535,179.396545 131.921600,179.756363 
z"/>
<path fill="#393939" opacity="1.000000" stroke="none" 
	d="
M137.979401,56.492828 
	C140.751480,57.029072 143.538162,57.940231 146.699371,59.334152 
	C147.382782,60.878250 147.691696,61.939583 147.759995,63.012123 
	C147.243744,63.140919 146.968124,63.258507 146.692490,63.376095 
	C146.779465,63.500057 146.866455,63.624023 146.953430,63.747993 
	C147.302094,63.498390 147.650742,63.248783 148.366562,63.005104 
	C150.206192,64.168022 151.678665,65.325005 152.920990,66.301155 
	C151.735641,67.223228 150.790955,67.958092 149.846283,68.692947 
	C147.836578,68.461166 145.826889,68.229385 143.387329,67.920425 
	C141.302963,64.184746 139.648483,60.526241 137.979401,56.492828 
M142.739883,60.187050 
	C142.624771,60.028625 142.509659,59.870201 142.394547,59.711777 
	C142.417969,59.932182 142.441406,60.152592 142.739883,60.187050 
z"/>
<path fill="#F2F2F2" opacity="1.000000" stroke="none" 
	d="
M74.006660,175.390778 
	C77.639854,174.357300 81.280975,173.698929 85.311111,173.493896 
	C85.769630,174.660339 85.839127,175.373428 85.908615,176.086517 
	C82.162781,178.988281 78.416939,181.890045 74.362091,184.956085 
	C75.455612,181.996368 75.447456,178.878189 74.006660,175.390778 
z"/>
<path fill="#414141" opacity="1.000000" stroke="none" 
	d="
M148.000610,63.000916 
	C147.691696,61.939583 147.382782,60.878250 147.033325,59.484718 
	C149.565231,60.117905 152.137711,61.083286 155.236877,62.434776 
	C157.528549,64.177025 159.293518,65.533157 161.058472,66.889282 
	C161.058472,66.889290 161.071747,66.969910 161.098724,67.221436 
	C161.087753,67.650574 161.049774,67.828201 161.011780,68.005821 
	C157.543823,68.322395 154.075867,68.638962 150.227097,68.824242 
	C150.790955,67.958092 151.735641,67.223228 152.920990,66.301155 
	C151.678665,65.325005 150.206192,64.168022 148.366867,63.005520 
	C148.000000,63.000000 148.000610,63.000916 148.000610,63.000916 
z"/>
<path fill="#8C8C8C" opacity="1.000000" stroke="none" 
	d="
M31.873310,88.581398 
	C29.387920,88.694344 27.011211,88.374535 24.279278,88.022606 
	C26.397575,84.045135 28.871092,80.099800 31.675886,76.084305 
	C32.007164,76.014137 31.973892,75.993095 31.973892,75.993095 
	C31.976593,80.044945 31.979292,84.096794 31.873310,88.581398 
z"/>
<path fill="#F6F6F6" opacity="1.000000" stroke="none" 
	d="
M184.880707,135.760101 
	C186.364731,132.465225 188.043213,129.509415 189.927032,126.275078 
	C190.621841,128.075256 191.111298,130.153961 191.600769,132.232651 
	C189.006989,132.815033 189.408661,138.452942 184.880707,135.760101 
z"/>
<path fill="#F5F2F0" opacity="1.000000" stroke="none" 
	d="
M90.928917,49.894444 
	C90.457489,50.198517 89.986069,50.502594 89.243317,50.898933 
	C90.441765,48.047588 91.701927,44.959297 93.552307,42.278370 
	C93.937698,41.719994 96.506844,42.668842 98.279495,43.320499 
	C98.311211,44.005203 98.133026,44.292492 97.552261,44.740753 
	C95.076096,46.565964 93.002510,48.230202 90.928917,49.894444 
z"/>
<path fill="#E0DFDF" opacity="1.000000" stroke="none" 
	d="
M132.959961,69.069992 
	C135.594177,69.576439 138.128601,70.372528 140.857788,71.463608 
	C141.025772,72.272179 140.998978,72.785759 140.970276,73.685074 
	C138.149124,73.213837 135.329910,72.356880 132.254883,71.241394 
	C132.286118,70.441803 132.573151,69.900726 132.959961,69.069992 
z"/>
<path fill="#F2F2F2" opacity="1.000000" stroke="none" 
	d="
M31.127693,113.300842 
	C30.084446,114.962425 28.903961,116.246567 27.723475,117.530708 
	C27.425779,117.417046 27.128082,117.303375 26.830387,117.189713 
	C27.330383,114.624611 27.830379,112.059509 28.573818,109.216972 
	C29.541656,110.267494 30.266056,111.595444 31.127693,113.300842 
z"/>
<path fill="#ECECEC" opacity="1.000000" stroke="none" 
	d="
M161.057709,66.546799 
	C159.293518,65.533157 157.528549,64.177025 155.556534,62.529060 
	C156.495956,61.814217 157.642441,61.391201 158.886810,60.602615 
	C160.219437,60.977409 161.454132,61.717766 162.858490,62.721481 
	C162.371078,64.057999 161.714005,65.131149 161.057709,66.546799 
z"/>
<path fill="#818181" opacity="1.000000" stroke="none" 
	d="
M43.895370,89.305450 
	C45.594006,91.714127 45.683716,94.264763 43.029312,97.188896 
	C42.407825,95.622688 41.978493,94.540726 41.281197,93.233109 
	C41.931282,91.873222 42.849327,90.738998 43.895370,89.305450 
z"/>
<path fill="#F5F2F0" opacity="1.000000" stroke="none" 
	d="
M73.494537,50.927437 
	C72.620689,50.640194 72.084419,50.274036 71.259102,49.725609 
	C71.994713,48.787479 73.019379,48.031620 74.044044,47.275764 
	C73.973404,48.466682 73.902756,49.657597 73.494537,50.927437 
z"/>
<path fill="#F2F2F2" opacity="1.000000" stroke="none" 
	d="
M154.286774,39.125866 
	C155.076309,37.429771 156.157516,35.861839 157.513855,34.181194 
	C158.038055,34.361080 158.287155,34.653679 158.768127,35.473145 
	C159.000000,36.000008 159.001968,35.997063 159.001968,35.997063 
	C157.527466,37.082718 156.052948,38.168377 154.286774,39.125866 
z"/>
<path fill="#251818" opacity="1.000000" stroke="none" 
	d="
M144.771835,166.908920 
	C144.819901,167.095718 144.867966,167.282516 145.018280,167.739960 
	C145.043198,168.761200 144.965836,169.511795 144.780548,170.624878 
	C143.584488,170.958069 142.496323,170.928772 141.168671,170.544586 
	C141.321518,169.171494 141.713867,168.153275 142.438293,167.093781 
	C143.437500,167.004639 144.104675,166.956787 144.771835,166.908920 
z"/>
<path fill="#F6F6F6" opacity="1.000000" stroke="none" 
	d="
M161.772278,48.405453 
	C160.811630,48.870201 159.723267,49.061153 158.317383,49.123970 
	C158.550476,48.123795 159.101089,47.251755 159.651718,46.379715 
	C160.316010,46.963699 160.980301,47.547680 161.772278,48.405453 
z"/>
<path fill="#F2F2F2" opacity="1.000000" stroke="none" 
	d="
M158.454956,33.406788 
	C158.193283,33.643280 158.040192,33.418510 158.025986,33.283279 
	C158.011780,32.069000 158.011780,30.989948 158.011780,29.910896 
	C158.532944,30.020859 159.054108,30.130819 159.575272,30.240782 
	C159.289062,31.217287 159.002853,32.193790 158.454956,33.406788 
z"/>
<path fill="#E0DFDF" opacity="1.000000" stroke="none" 
	d="
M120.976250,16.721642 
	C120.576286,17.029280 120.175819,17.007605 119.467804,17.021751 
	C118.872162,16.864567 118.584053,16.671562 118.167152,16.249495 
	C119.017487,16.144394 119.996613,16.268360 120.976250,16.721642 
z"/>
<path fill="#F6F6F6" opacity="1.000000" stroke="none" 
	d="
M166.012985,43.741608 
	C165.824661,44.225422 165.442062,44.512875 165.059479,44.800323 
	C164.881546,44.429684 164.703613,44.059044 164.525665,43.688400 
	C164.956680,43.640682 165.387711,43.592960 166.012985,43.741608 
z"/>
<path fill="#F2F2F2" opacity="1.000000" stroke="none" 
	d="
M58.041534,94.451958 
	C58.394714,94.023521 58.803112,93.898384 59.531242,93.748337 
	C59.877144,94.429131 59.903324,95.134811 59.929497,95.840500 
	C59.318584,95.478752 58.707672,95.116997 58.041534,94.451958 
z"/>
<path fill="#F5F2F0" opacity="1.000000" stroke="none" 
	d="
M101.690666,38.025505 
	C101.850693,38.578640 101.715523,39.161278 101.306732,39.877182 
	C101.153908,39.358631 101.274689,38.706818 101.690666,38.025505 
z"/>
<path fill="#251818" opacity="1.000000" stroke="none" 
	d="
M123.776978,191.207764 
	C124.660400,191.053787 125.415871,191.107483 126.901497,191.213089 
	C125.684235,191.996765 125.062592,192.396973 124.163986,192.922882 
	C123.887016,193.048599 123.759285,193.076401 123.820503,192.758362 
	C123.830765,192.259140 123.779816,192.077942 123.728859,191.896729 
	C123.728859,191.896729 123.649040,191.415436 123.776978,191.207764 
z"/>
<path fill="#F6F6F6" opacity="1.000000" stroke="none" 
	d="
M176.860077,128.809158 
	C176.529953,129.301605 176.045914,129.564804 175.273605,129.802246 
	C175.558945,129.377640 176.132553,128.978775 176.860077,128.809158 
z"/>
<path fill="#251818" opacity="1.000000" stroke="none" 
	d="
M143.138214,216.474213 
	C143.321396,215.808334 143.696686,215.414856 144.354126,214.991974 
	C144.200943,215.557236 143.765640,216.151917 143.138214,216.474213 
z"/>
<path fill="#ECECEC" opacity="1.000000" stroke="none" 
	d="
M161.279175,68.139114 
	C161.049774,67.828201 161.087753,67.650574 161.133881,67.200607 
	C161.969955,67.272011 162.797897,67.615761 163.625824,67.959518 
	C163.548416,68.205116 163.470993,68.450714 163.393585,68.696312 
	C162.777908,68.555008 162.162247,68.413704 161.279175,68.139114 
z"/>
<path fill="#F6F6F6" opacity="1.000000" stroke="none" 
	d="
M165.383087,47.257656 
	C165.060501,47.878750 164.368134,48.413101 163.333771,48.884884 
	C163.665619,48.271851 164.339462,47.721378 165.383087,47.257656 
z"/>
<path fill="#818181" opacity="1.000000" stroke="none" 
	d="
M47.627205,78.973328 
	C47.768982,79.503365 47.667522,80.234161 47.284790,80.982666 
	C47.130333,80.391609 47.257149,79.782852 47.627205,78.973328 
z"/>
<path fill="#F2F2F2" opacity="1.000000" stroke="none" 
	d="
M158.998413,36.001564 
	C159.430466,36.122940 159.864090,36.242764 160.297729,36.362587 
	C159.948227,36.377743 159.598740,36.392899 159.125610,36.202560 
	C159.001968,35.997063 159.000000,36.000008 158.998413,36.001564 
z"/>
<path fill="#8C8C8C" opacity="1.000000" stroke="none" 
	d="
M32.019035,76.030411 
	C32.030903,76.046684 32.182133,75.595909 32.182133,75.595909 
	C32.182133,75.595909 32.187664,75.869949 32.080780,75.931519 
	C31.973892,75.993095 32.007164,76.014137 32.019035,76.030411 
z"/>
<path fill="#F5F2F0" opacity="1.000000" stroke="none" 
	d="
M87.802040,52.109261 
	C87.861839,52.299713 87.689827,52.583447 87.266327,52.937798 
	C87.090721,52.664486 87.275848,52.395863 87.802040,52.109261 
z"/>
<path fill="#8C2B2D" opacity="1.000000" stroke="none" 
	d="
M123.603889,192.000092 
	C123.779816,192.077942 123.830765,192.259140 123.787292,192.702057 
	C123.435738,192.742096 123.364418,192.455322 123.603889,192.000092 
z"/>
<path fill="#F5F2F0" opacity="1.000000" stroke="none" 
	d="
M98.532730,34.551620 
	C98.475906,34.585636 98.589554,34.517601 98.532730,34.551620 
z"/>
<path fill="#F6F6F6" opacity="1.000000" stroke="none" 
	d="
M169.818146,130.375244 
	C169.795609,130.637115 169.612106,130.660614 169.527740,130.688171 
	C169.484833,130.423859 169.526291,130.131958 169.567749,129.840073 
	C169.658737,129.931168 169.749710,130.022278 169.818146,130.375244 
z"/>
<path fill="#8C8C8C" opacity="1.000000" stroke="none" 
	d="
M191.269821,122.123062 
	C190.980087,121.673065 191.132233,121.387924 191.664795,121.107155 
	C191.792953,121.428360 191.681778,121.820496 191.269821,122.123062 
z"/>
<path fill="#F2F2F2" opacity="1.000000" stroke="none" 
	d="
M159.534760,39.550980 
	C159.478333,39.584747 159.591202,39.517216 159.534760,39.550980 
z"/>
<path fill="#ECECEC" opacity="1.000000" stroke="none" 
	d="
M26.447826,156.534882 
	C26.414591,156.479431 26.481062,156.590317 26.447826,156.534882 
z"/>
<path fill="#F5F2F0" opacity="1.000000" stroke="none" 
	d="
M98.550980,36.467331 
	C98.585785,36.525055 98.516182,36.409607 98.550980,36.467331 
z"/>
<path fill="#F5F2F0" opacity="1.000000" stroke="none" 
	d="
M99.516594,42.181721 
	C99.782845,42.323067 99.714996,42.325798 99.745430,42.318878 
	C99.495667,42.247875 99.214180,42.188667 98.936478,42.115139 
	C98.887321,42.102123 98.853958,42.029446 98.813309,41.984314 
	C98.958984,42.003002 99.104668,42.021687 99.516594,42.181721 
z"/>
<path fill="#F2F2F2" opacity="1.000000" stroke="none" 
	d="
M54.532532,98.552803 
	C54.476852,98.586494 54.588215,98.519112 54.532532,98.552803 
z"/>
<path fill="#9F2221" opacity="1.000000" stroke="none" 
	d="
M144.866760,166.552277 
	C144.104675,166.956787 143.437500,167.004639 142.262848,166.827316 
	C138.354935,164.229584 137.907394,168.043594 136.126190,169.182327 
	C134.891190,169.971893 133.288788,170.186783 131.850525,170.658432 
	C131.903687,169.774826 131.956848,168.891205 132.228104,167.898895 
	C132.718597,167.591080 132.905426,167.330566 133.355957,166.971344 
	C134.757370,166.161224 135.780731,165.345032 136.867630,164.624680 
	C139.129715,163.125458 141.425415,161.676956 143.707306,160.207596 
	C144.633835,158.584930 148.488724,154.457001 142.575317,154.518494 
	C141.062119,156.647491 139.459656,157.947662 138.216309,159.529999 
	C136.342865,161.914246 134.720413,164.495712 132.772324,167.100769 
	C132.280258,167.406952 132.093185,167.667496 131.621765,167.992935 
	C129.825455,168.316971 128.399567,168.637894 126.970276,168.610168 
	C126.941338,167.796783 126.915787,167.332047 127.108734,166.594498 
	C128.211685,165.517151 129.096130,164.712631 129.980576,163.908112 
	C129.742401,163.489212 129.504227,163.070312 129.266052,162.651413 
	C127.472618,163.055634 125.679192,163.459854 123.885765,163.864075 
	C123.695457,163.867477 123.505150,163.870895 122.722733,163.728424 
	C119.088348,163.039703 116.046082,162.496872 113.003807,161.954041 
	C108.529861,161.016235 104.015213,160.225723 99.617905,159.010590 
	C98.784378,158.780258 98.416321,156.865509 98.348724,155.450806 
	C100.357315,154.511032 101.850685,153.848404 103.344048,153.185760 
	C103.714775,153.160843 104.085503,153.135910 105.135490,153.092102 
	C109.209633,152.383957 112.604515,151.694687 115.999405,151.005432 
	C117.070122,150.996384 118.140846,150.987335 119.849304,150.989380 
	C120.487053,151.000458 120.984291,151.007141 121.326797,151.061966 
	C122.358894,151.063354 123.048492,151.009933 124.052216,150.984985 
	C124.575783,150.994934 124.785240,150.976410 124.994698,150.957886 
	C125.447861,150.971344 125.901031,150.984802 127.121529,151.015442 
	C133.591492,151.289032 139.294128,151.545441 144.996750,151.801865 
	C147.384888,151.826859 149.774826,151.806213 152.160248,151.900223 
	C153.062302,151.935760 153.953903,152.236023 154.850281,152.415619 
	C154.498108,153.229507 154.321976,154.199646 153.762680,154.829666 
	C151.582352,157.285721 149.173996,159.544937 147.071640,162.062134 
	C146.104736,163.219833 145.649124,164.804565 144.866760,166.552277 
M104.728096,157.005569 
	C111.476585,159.485992 123.544716,159.867126 127.570168,157.559189 
	C126.760765,157.338715 126.179337,157.098267 125.578262,157.029541 
	C120.582314,156.458252 115.409744,158.213074 110.517609,155.189941 
	C109.208977,154.381271 106.480087,155.870926 104.728096,157.005569 
M133.500092,155.930038 
	C134.821060,155.817657 136.142014,155.705292 137.462982,155.592926 
	C137.432266,155.046127 137.401550,154.499344 137.370834,153.952545 
	C129.824463,153.952545 122.278076,153.952545 114.731705,153.952545 
	C114.711777,154.151596 114.691849,154.350647 114.671921,154.549713 
	C120.664162,154.952438 126.656395,155.355179 133.500092,155.930038 
M139.589310,155.517136 
	C139.589310,155.517136 139.476791,155.584564 139.589310,155.517136 
z"/>
<path fill="#E0DFDF" opacity="1.000000" stroke="none" 
	d="
M123.738091,150.956512 
	C123.048492,151.009933 122.358894,151.063354 121.309067,150.805420 
	C120.902000,150.329178 120.855179,150.164291 120.808365,149.999405 
	C120.855263,122.998062 120.902168,95.996712 120.891907,68.534485 
	C121.682014,68.112595 122.529274,68.151596 123.617378,68.396820 
	C123.838036,95.425560 123.817856,122.248077 123.784271,149.759583 
	C123.759941,150.617889 123.749016,150.787201 123.738091,150.956512 
z"/>
<path fill="#E0DFDF" opacity="1.000000" stroke="none" 
	d="
M98.985672,104.149124 
	C99.150482,104.094688 99.315292,104.040260 99.891830,104.141716 
	C100.495506,103.997452 100.687454,103.697304 100.879410,103.397156 
	C104.167175,101.762604 107.185944,101.982384 110.044388,104.468987 
	C113.904984,107.827400 113.843613,111.898346 111.935043,116.354507 
	C109.500328,115.791954 107.962456,115.779030 106.258522,117.481216 
	C104.575897,119.162117 103.335487,118.077477 103.174759,115.561447 
	C102.382645,115.216141 101.678192,115.123566 101.037521,114.655464 
	C103.588593,113.313240 106.075897,112.346550 108.777832,111.296440 
	C108.777832,110.187225 108.777832,108.125305 108.777832,105.907921 
	C106.277512,106.648277 104.127762,107.284828 101.831108,107.693390 
	C100.804756,107.346443 99.925316,107.227478 98.333023,106.987244 
	C97.141945,106.805382 96.663704,106.744789 96.185471,106.684196 
	C96.268677,106.508980 96.351875,106.333771 97.081444,106.030289 
	C98.147102,105.317703 98.566383,104.733414 98.985672,104.149124 
z"/>
<path fill="#E0DFDF" opacity="1.000000" stroke="none" 
	d="
M95.025055,81.694275 
	C95.873238,80.653595 96.706833,80.043800 97.540436,79.434006 
	C97.985756,80.217232 98.790939,80.989296 98.815620,81.785561 
	C98.938377,85.745293 99.032051,89.724815 98.732491,93.666695 
	C98.647942,94.779228 97.200317,95.788185 96.377869,96.844643 
	C95.922073,96.655388 95.466270,96.466141 95.010475,96.276886 
	C95.010475,91.559639 95.010475,86.842392 95.025055,81.694275 
z"/>
<path fill="#E0DFDF" opacity="1.000000" stroke="none" 
	d="
M107.039368,81.247665 
	C107.730965,79.353004 108.430168,77.924446 109.129364,76.495888 
	C112.095535,86.315193 111.193703,92.254784 107.046974,94.059357 
	C107.046974,89.726944 107.046974,85.720352 107.039368,81.247665 
z"/>
<path fill="#E0DFDF" opacity="1.000000" stroke="none" 
	d="
M104.828751,80.478607 
	C104.823112,84.564407 104.990883,88.214912 104.698448,91.828163 
	C104.595589,93.099014 103.364738,94.278572 102.648941,95.499825 
	C102.088165,95.293579 101.527397,95.087341 100.966621,94.881104 
	C100.966621,89.987389 100.896950,85.091583 101.043419,80.202263 
	C101.064835,79.487259 102.115929,78.803108 102.690582,78.104675 
	C103.400726,78.746002 104.110870,79.387321 104.828751,80.478607 
z"/>
<path fill="#ECECEC" opacity="1.000000" stroke="none" 
	d="
M95.980911,106.835495 
	C96.663704,106.744789 97.141945,106.805382 98.357529,107.362564 
	C99.119408,108.109428 99.143944,108.359688 99.069557,108.899857 
	C98.685974,109.823387 98.401306,110.457001 97.690346,111.111961 
	C96.983650,111.085297 96.703255,111.037292 96.439468,110.960831 
	C96.456078,110.932373 96.484337,110.872849 96.038452,110.706345 
	C95.392754,111.710144 95.192947,112.880447 95.021370,114.031769 
	C95.049599,114.012787 95.036606,113.946014 94.777267,113.842499 
	C94.657578,114.077187 94.797234,114.415398 95.080536,115.024620 
	C95.551682,115.543488 95.879173,115.791328 96.387360,116.209053 
	C96.797112,116.623940 96.970657,116.903419 97.062866,117.402298 
	C97.037033,117.587219 96.991859,117.957909 97.001183,117.968628 
	C97.010506,117.979347 96.987000,117.995178 96.726028,118.007973 
	C95.997734,118.218102 95.530411,118.415443 95.063087,118.612785 
	C91.637093,115.510117 91.782791,113.135269 95.980911,106.835495 
z"/>
<path fill="#ECECEC" opacity="1.000000" stroke="none" 
	d="
M105.555916,121.005470 
	C106.863182,125.016701 103.804001,124.969360 101.505165,124.954514 
	C99.394859,124.940887 96.017273,126.141312 96.899971,121.380981 
	C98.930031,120.651665 100.456680,120.331818 102.329330,119.968719 
	C102.907501,119.916428 103.139671,119.907379 103.684723,119.938629 
	C104.517052,120.321114 105.036484,120.663292 105.555916,121.005470 
z"/>
<path fill="#100708" opacity="1.000000" stroke="none" 
	d="
M113.002670,162.327301 
	C116.046082,162.496872 119.088348,163.039703 122.439102,163.761078 
	C119.752846,164.327209 116.758118,164.714798 113.376343,165.019135 
	C112.993385,164.190781 112.997459,163.445663 113.002670,162.327301 
z"/>
<path fill="#0A0A0A" opacity="1.000000" stroke="none" 
	d="
M105.871933,120.896530 
	C105.036484,120.663292 104.517052,120.321114 103.810455,119.690262 
	C103.576126,119.222107 103.528969,119.042618 103.616203,118.443161 
	C103.517494,117.844070 103.284401,117.664963 103.142456,117.072769 
	C103.243210,116.377861 103.252815,116.096016 103.262428,115.814171 
	C103.335487,118.077477 104.575897,119.162117 106.258522,117.481216 
	C107.962456,115.779030 109.500328,115.791954 111.707382,116.609161 
	C110.058983,118.123329 108.123466,119.455467 105.871933,120.896530 
z"/>
<path fill="#1C0504" opacity="1.000000" stroke="none" 
	d="
M115.769226,150.729706 
	C112.604515,151.694687 109.209633,152.383957 105.408455,153.032593 
	C107.987907,149.959946 111.128899,147.572418 115.769226,150.729706 
z"/>
<path fill="#C4C4C4" opacity="1.000000" stroke="none" 
	d="
M101.983330,120.011963 
	C100.456680,120.331818 98.930031,120.651665 96.990952,121.028397 
	C96.335381,120.633072 96.092232,120.180878 96.109314,119.328735 
	C96.575371,118.617592 96.781181,118.306389 96.987000,117.995178 
	C96.987000,117.995178 97.010506,117.979347 97.260201,118.076996 
	C98.009956,117.783180 98.510010,117.391716 99.298561,117.008163 
	C99.971329,116.995880 100.355598,116.975662 100.773422,117.288834 
	C100.901253,118.057930 100.995537,118.493637 100.905563,119.083359 
	C101.141983,119.495567 101.562660,119.753761 101.983330,120.011963 
z"/>
<path fill="#1C0504" opacity="1.000000" stroke="none" 
	d="
M102.911606,153.127197 
	C101.850685,153.848404 100.357315,154.511032 98.505768,155.209885 
	C99.591446,154.520279 101.035301,153.794464 102.911606,153.127197 
z"/>
<path fill="#F2F2F2" opacity="1.000000" stroke="none" 
	d="
M98.740074,104.095520 
	C98.566383,104.733414 98.147102,105.317703 97.340157,105.897202 
	C97.466484,105.275566 97.980476,104.658737 98.740074,104.095520 
z"/>
<path fill="#F2F2F2" opacity="1.000000" stroke="none" 
	d="
M96.726028,118.007973 
	C96.781181,118.306389 96.575371,118.617592 96.097321,119.021988 
	C95.825081,119.115173 95.382935,118.956734 95.223007,118.784760 
	C95.530411,118.415443 95.997734,118.218102 96.726028,118.007973 
z"/>
<path fill="#1C0504" opacity="1.000000" stroke="none" 
	d="
M120.635193,150.104721 
	C120.855179,150.164291 120.902000,150.329178 120.966560,150.750610 
	C120.984291,151.007141 120.487053,151.000458 120.247452,150.934265 
	C120.093079,150.603058 120.244476,150.383728 120.635193,150.104721 
z"/>
<path fill="#F2F2F2" opacity="1.000000" stroke="none" 
	d="
M100.618813,103.489014 
	C100.687454,103.697304 100.495506,103.997452 100.152046,104.149864 
	C100.119759,103.861710 100.238991,103.721298 100.618813,103.489014 
z"/>
<path fill="#1C0504" opacity="1.000000" stroke="none" 
	d="
M144.949921,151.500168 
	C139.294128,151.545441 133.591492,151.289032 127.458328,150.965881 
	C132.632950,150.596466 138.238083,150.293808 144.286560,149.987091 
	C144.787613,150.388184 144.845352,150.793320 144.949921,151.500168 
z"/>
<path fill="#1C0504" opacity="1.000000" stroke="none" 
	d="
M124.052216,150.984985 
	C123.749016,150.787201 123.759941,150.617889 123.880859,150.218964 
	C124.309357,150.086487 124.570259,150.266922 124.884125,150.744263 
	C124.785240,150.976410 124.575783,150.994934 124.052216,150.984985 
z"/>
<path fill="#8C2B2D" opacity="1.000000" stroke="none" 
	d="
M91.262825,49.961723 
	C93.002510,48.230202 95.076096,46.565964 97.491539,44.905960 
	C96.161766,49.298977 94.490143,53.687759 92.504158,58.251743 
	C91.411713,55.668617 95.853500,52.541664 91.262825,49.961723 
z"/>
<path fill="#8C2B2D" opacity="1.000000" stroke="none" 
	d="
M78.452759,73.897034 
	C78.358253,73.308746 78.734886,72.290398 79.008621,72.317345 
	C84.311745,72.839348 86.405487,69.089218 88.865158,65.245773 
	C88.476234,67.486809 87.737801,69.815216 86.981483,72.509674 
	C84.267723,73.235031 81.571854,73.594337 78.452759,73.897034 
z"/>
<path fill="#8C2B2D" opacity="1.000000" stroke="none" 
	d="
M90.447525,63.114532 
	C90.589409,61.996300 91.000504,60.648403 91.747223,59.143181 
	C91.627472,60.285526 91.172104,61.585201 90.447525,63.114532 
z"/>
<path fill="#8C2B2D" opacity="1.000000" stroke="none" 
	d="
M89.405098,65.054390 
	C89.299194,64.843216 89.439384,64.539345 89.812393,64.122681 
	C89.913872,64.327164 89.782539,64.644432 89.405098,65.054390 
z"/>
<path fill="#100708" opacity="1.000000" stroke="none" 
	d="
M119.000893,175.013458 
	C117.199188,176.890625 115.397484,178.767792 113.324188,180.831177 
	C109.964188,180.176636 109.797653,177.766663 109.901688,174.736176 
	C112.495232,172.321930 114.988663,170.148819 117.805801,168.543945 
	C118.711311,168.028091 120.470673,169.011047 121.736343,169.986450 
	C120.977501,172.043961 120.321716,173.423325 119.493179,174.831573 
	C119.320427,174.860458 119.000893,175.013458 119.000893,175.013458 
z"/>
<path fill="#100708" opacity="1.000000" stroke="none" 
	d="
M99.207993,181.080414 
	C99.529778,180.544601 100.155991,180.162109 101.042618,179.705841 
	C102.484764,180.352081 103.666496,181.072098 104.848236,181.792114 
	C104.597824,182.359238 104.347412,182.926361 104.097000,183.493484 
	C102.568810,182.740234 101.040611,181.986984 99.207993,181.080414 
z"/>
<path fill="#0A0A0A" opacity="1.000000" stroke="none" 
	d="
M86.256874,175.978058 
	C85.839127,175.373428 85.769630,174.660339 85.711136,173.586945 
	C85.868507,172.122894 86.014870,171.019165 86.175613,169.494904 
	C89.365303,169.562653 92.540604,170.050919 95.715904,170.539200 
	C95.758888,170.871994 95.801865,171.204803 95.844849,171.537598 
	C92.764946,172.981613 89.685036,174.425613 86.256874,175.978058 
z"/>
<path fill="#100708" opacity="1.000000" stroke="none" 
	d="
M123.950256,164.282227 
	C125.679192,163.459854 127.472618,163.055634 129.266052,162.651413 
	C129.504227,163.070312 129.742401,163.489212 129.980576,163.908112 
	C129.096130,164.712631 128.211685,165.517151 126.819710,166.738693 
	C125.849998,168.082428 125.387802,169.009125 124.929375,169.948639 
	C124.933144,169.961441 124.924431,169.925964 124.731155,169.883636 
	C124.537888,169.841309 124.178635,169.675415 124.178635,169.675415 
	C124.124008,168.017059 124.069382,166.358719 123.950256,164.282227 
M125.354309,165.486206 
	C125.354309,165.486206 125.431450,165.461349 125.354309,165.486206 
z"/>
<path fill="#8C2B2D" opacity="1.000000" stroke="none" 
	d="
M123.820999,169.832367 
	C124.178635,169.675415 124.537888,169.841309 124.765457,170.228317 
	C124.994255,171.076248 124.995468,171.537170 124.683128,172.158081 
	C122.801697,173.146286 121.233810,173.974487 119.665924,174.802704 
	C120.321716,173.423325 120.977501,172.043961 121.770844,170.370499 
	C122.426712,170.047379 122.945038,170.018341 123.820999,169.832367 
z"/>
<path fill="#B31C22" opacity="1.000000" stroke="none" 
	d="
M124.996689,171.998093 
	C124.995468,171.537170 124.994255,171.076248 124.958733,170.270645 
	C124.924431,169.925964 124.933144,169.961441 125.237335,169.955933 
	C126.018913,169.619888 126.496292,169.289368 126.973671,168.958832 
	C128.399567,168.637894 129.825455,168.316971 131.625671,167.998001 
	C132.000000,167.999969 132.010025,168.007599 132.010010,168.007599 
	C131.956848,168.891205 131.903687,169.774826 131.850525,170.658432 
	C133.288788,170.186783 134.891190,169.971893 136.126190,169.182327 
	C137.907394,168.043594 138.354935,164.229584 141.930786,166.868591 
	C141.713867,168.153275 141.321518,169.171494 140.879166,170.515320 
	C140.829178,170.840942 140.419693,170.931473 139.880768,171.002960 
	C138.975021,171.561646 138.608185,172.048843 138.241348,172.536026 
	C138.224915,172.849335 138.152298,173.149017 137.721176,173.661224 
	C137.253632,173.914886 137.088409,173.942413 136.666229,174.083618 
	C135.929413,174.749664 135.449554,175.302017 134.959625,175.888397 
	C134.949570,175.922424 134.882248,175.944809 134.666718,175.961273 
	C134.270981,176.303482 134.090759,176.629227 133.751923,177.176605 
	C133.117554,177.644958 132.641830,177.891663 132.166122,178.138367 
	C131.258255,178.248581 130.350372,178.358810 128.871689,178.731079 
	C127.099297,178.653748 125.897720,178.314392 123.939743,177.761398 
	C125.639091,176.044220 126.864769,174.805679 128.348267,173.306595 
	C127.522980,172.984406 126.259834,172.491241 124.996689,171.998093 
z"/>
<path fill="#251818" opacity="1.000000" stroke="none" 
	d="
M132.117264,178.407639 
	C132.641830,177.891663 133.117554,177.644958 133.994980,177.099152 
	C134.558533,176.514969 134.720383,176.229889 134.882233,175.944809 
	C134.882248,175.944809 134.949570,175.922424 135.190277,175.910095 
	C135.430969,175.897751 135.893478,175.915649 135.893478,175.915649 
	C136.105835,178.540100 135.905075,180.828506 132.107254,180.049042 
	C131.970535,179.396545 132.019470,179.036728 132.117264,178.407639 
z"/>
<path fill="#251818" opacity="1.000000" stroke="none" 
	d="
M126.112160,183.985046 
	C127.054543,182.788849 128.150909,181.884445 129.555695,180.933868 
	C128.664810,182.017410 127.465469,183.147125 126.112160,183.985046 
z"/>
<path fill="#8C2B2D" opacity="1.000000" stroke="none" 
	d="
M136.091125,175.776016 
	C135.893478,175.915649 135.430969,175.897751 135.200317,175.876068 
	C135.449554,175.302017 135.929413,174.749664 136.681519,174.328064 
	C136.953751,174.458817 136.965424,174.948166 136.965424,174.948166 
	C136.764801,175.202072 136.539261,175.431488 136.091125,175.776016 
z"/>
<path fill="#8C2B2D" opacity="1.000000" stroke="none" 
	d="
M138.527191,172.425934 
	C138.608185,172.048843 138.975021,171.561646 139.675003,171.043304 
	C139.609772,171.446701 139.211395,171.881287 138.527191,172.425934 
z"/>
<path fill="#251818" opacity="1.000000" stroke="none" 
	d="
M137.199142,174.848450 
	C136.965424,174.948166 136.953751,174.458817 136.938461,174.214386 
	C137.088409,173.942413 137.253632,173.914886 137.669617,173.887527 
	C137.757874,174.174698 137.595367,174.461716 137.199142,174.848450 
z"/>
<path fill="#251818" opacity="1.000000" stroke="none" 
	d="
M142.556839,212.469757 
	C142.589722,212.523163 142.523956,212.416367 142.556839,212.469757 
z"/>
<path fill="#969696" opacity="1.000000" stroke="none" 
	d="
M198.944794,116.014542 
	C198.634888,115.830246 198.736298,115.398155 198.822021,115.193596 
	C200.003143,115.769707 201.098541,116.550377 202.193954,117.331047 
	C201.805084,117.766174 201.416199,118.201309 201.027328,118.636444 
	C200.436462,117.823906 199.845581,117.011375 198.944794,116.014542 
z"/>
<path fill="#A5A5A5" opacity="1.000000" stroke="none" 
	d="
M196.644791,106.738495 
	C196.630005,106.990952 196.495438,107.128517 196.360870,107.266083 
	C196.415588,107.051926 196.470291,106.837769 196.644791,106.738495 
z"/>
<path fill="#818181" opacity="1.000000" stroke="none" 
	d="
M46.993301,90.000610 
	C46.905807,89.561607 46.818310,89.122604 46.862350,89.090759 
	C46.993687,89.665474 46.993496,89.833038 46.993301,90.000610 
z"/>
<path fill="#777777" opacity="1.000000" stroke="none" 
	d="
M49.994701,86.019859 
	C49.994701,86.019859 50.002930,86.514572 50.005211,87.008698 
	C50.007488,87.502831 50.012241,87.996613 50.012241,87.996613 
	C49.687786,87.530586 49.363335,87.064568 49.019287,86.299423 
	C48.999695,86.000305 48.999901,86.000000 49.247902,86.004868 
	C49.495907,86.009743 49.994701,86.019859 49.994701,86.019859 
z"/>
<path fill="#818181" opacity="1.000000" stroke="none" 
	d="
M49.999191,85.763756 
	C49.994701,86.019859 49.495907,86.009743 49.246445,86.006012 
	C49.089756,85.670250 49.276516,85.404213 49.781990,85.099762 
	C50.005703,85.166130 50.004696,85.336891 49.999191,85.763756 
z"/>
<path fill="#818181" opacity="1.000000" stroke="none" 
	d="
M50.176884,87.907982 
	C50.012241,87.996613 50.007488,87.502831 50.008827,87.256065 
	C50.120617,87.279320 50.231071,87.549332 50.176884,87.907982 
z"/>
<path fill="#777777" opacity="1.000000" stroke="none" 
	d="
M47.163445,89.912796 
	C46.993496,89.833038 46.993687,89.665474 46.995605,89.246506 
	C47.174061,89.163002 47.365982,89.319061 47.514183,89.509193 
	C47.542473,89.545479 47.398232,89.716255 47.163445,89.912796 
z"/>
<path fill="#A61F1E" opacity="1.000000" stroke="none" 
	d="
M124.683136,172.158081 
	C126.259834,172.491241 127.522980,172.984406 128.348267,173.306595 
	C126.864769,174.805679 125.639091,176.044220 123.939743,177.761398 
	C125.897720,178.314392 127.099297,178.653748 128.645264,178.997772 
	C127.247818,179.654572 125.505997,180.306717 123.326157,180.645691 
	C121.578781,179.883148 120.269417,179.433762 118.960052,178.984375 
	C118.975136,177.925308 118.990227,176.866257 119.003105,175.410324 
	C119.000893,175.013458 119.320427,174.860458 119.493179,174.831573 
	C121.233810,173.974487 122.801697,173.146286 124.683136,172.158081 
z"/>
<path fill="#B31C22" opacity="1.000000" stroke="none" 
	d="
M118.807556,179.284790 
	C120.269417,179.433762 121.578781,179.883148 122.964806,180.698425 
	C120.149307,183.187393 117.257156,185.310455 114.365005,187.433517 
	C113.833771,186.845108 113.302536,186.256699 112.771301,185.668289 
	C114.732559,183.640594 116.693810,181.612915 118.807556,179.284790 
z"/>
<path fill="#414141" opacity="1.000000" stroke="none" 
	d="
M142.602356,60.280022 
	C142.441406,60.152592 142.417969,59.932182 142.394547,59.711777 
	C142.509659,59.870201 142.624771,60.028625 142.602356,60.280022 
z"/>
<path fill="#414141" opacity="1.000000" stroke="none" 
	d="
M147.999695,62.999588 
	C147.650742,63.248783 147.302094,63.498390 146.953430,63.747993 
	C146.866455,63.624023 146.779465,63.500057 146.692490,63.376095 
	C146.968124,63.258507 147.243744,63.140919 147.759995,63.012123 
	C148.000610,63.000916 148.000000,63.000000 147.999695,62.999588 
z"/>
<path fill="#B31C22" opacity="1.000000" stroke="none" 
	d="
M104.565659,156.655502 
	C106.480087,155.870926 109.208977,154.381271 110.517609,155.189941 
	C115.409744,158.213074 120.582314,156.458252 125.578262,157.029541 
	C126.179337,157.098267 126.760765,157.338715 127.570168,157.559189 
	C123.544716,159.867126 111.476585,159.485992 104.565659,156.655502 
z"/>
<path fill="#B31C22" opacity="1.000000" stroke="none" 
	d="
M132.991257,166.993347 
	C134.720413,164.495712 136.342865,161.914246 138.216309,159.529999 
	C139.459656,157.947662 141.062119,156.647491 142.575317,154.518494 
	C148.488724,154.457001 144.633835,158.584930 143.707306,160.207596 
	C141.425415,161.676956 139.129715,163.125458 136.867630,164.624680 
	C135.780731,165.345032 134.757370,166.161224 133.352615,166.967010 
	C133.000000,167.000000 132.991257,166.993347 132.991257,166.993347 
z"/>
<path fill="#B31C22" opacity="1.000000" stroke="none" 
	d="
M133.074371,155.843964 
	C126.656395,155.355179 120.664162,154.952438 114.671921,154.549713 
	C114.691849,154.350647 114.711777,154.151596 114.731705,153.952545 
	C122.278076,153.952545 129.824463,153.952545 137.370834,153.952545 
	C137.401550,154.499344 137.432266,155.046127 137.462982,155.592926 
	C136.142014,155.705292 134.821060,155.817657 133.074371,155.843964 
z"/>
<path fill="#8C2B2D" opacity="1.000000" stroke="none" 
	d="
M126.970276,168.610168 
	C126.496292,169.289368 126.018913,169.619888 125.233566,169.943115 
	C125.387802,169.009125 125.849998,168.082428 126.601212,167.011520 
	C126.915787,167.332047 126.941338,167.796783 126.970276,168.610168 
z"/>
<path fill="#B31C22" opacity="1.000000" stroke="none" 
	d="
M131.996094,167.994904 
	C132.093185,167.667496 132.280258,167.406952 132.772324,167.100769 
	C132.991257,166.993347 133.000000,167.000000 133.003326,167.004349 
	C132.905426,167.330566 132.718597,167.591080 132.228119,167.898895 
	C132.010025,168.007599 132.000000,167.999969 131.996094,167.994904 
z"/>
<path fill="#B31C22" opacity="1.000000" stroke="none" 
	d="
M139.533051,155.550842 
	C139.476791,155.584564 139.589310,155.517136 139.533051,155.550842 
z"/>
<path fill="#251818" opacity="1.000000" stroke="none" 
	d="
M98.116638,111.090614 
	C98.401306,110.457001 98.685974,109.823387 99.303764,109.063461 
	C100.417259,108.598557 101.197639,108.259964 101.978012,107.921371 
	C104.127762,107.284828 106.277512,106.648277 108.777832,105.907921 
	C108.777832,108.125305 108.777832,110.187225 108.777832,111.296440 
	C106.075897,112.346550 103.588593,113.313240 101.069008,114.644165 
	C101.036720,115.008385 101.030426,114.941032 100.690796,114.916077 
	C99.830002,113.938782 99.308823,112.986443 98.849472,111.703514 
	C98.601120,111.237854 98.290947,111.102791 98.012787,111.000610 
	C98.044792,111.033501 98.116646,111.090614 98.116638,111.090614 
z"/>
<path fill="#393939" opacity="1.000000" stroke="none" 
	d="
M101.089821,118.929344 
	C100.995537,118.493637 100.901253,118.057930 100.872986,116.961670 
	C100.969467,115.847755 100.999947,115.394394 101.030426,114.941032 
	C101.030426,114.941032 101.036720,115.008385 101.005234,115.019684 
	C101.678192,115.123566 102.382645,115.216141 103.174759,115.561447 
	C103.252815,116.096016 103.243210,116.377861 102.972382,117.341896 
	C102.438713,118.333321 102.166260,118.642548 101.692261,118.966324 
	C101.490700,118.980881 101.089821,118.929344 101.089821,118.929344 
z"/>
<path fill="#F2F2F2" opacity="1.000000" stroke="none" 
	d="
M101.831108,107.693390 
	C101.197639,108.259964 100.417259,108.598557 99.402679,108.773544 
	C99.143944,108.359688 99.119408,108.109428 99.070374,107.483841 
	C99.925316,107.227478 100.804756,107.346443 101.831108,107.693390 
z"/>
<path fill="#E0DFDF" opacity="1.000000" stroke="none" 
	d="
M100.690796,114.916077 
	C100.999947,115.394394 100.969467,115.847755 100.839432,116.628281 
	C100.355598,116.975662 99.971329,116.995880 98.975220,117.023865 
	C97.938492,117.093552 97.513596,117.155464 97.088699,117.217377 
	C96.970657,116.903419 96.797112,116.623940 96.281181,115.855850 
	C95.961815,114.843903 95.929329,114.355034 95.918625,113.912018 
	C95.940392,113.957855 95.845627,113.921509 96.155876,113.762527 
	C96.683701,112.954239 96.901276,112.304947 97.263824,111.667610 
	C97.408791,111.679573 97.665695,111.816101 97.942253,111.890831 
	C98.408432,111.988419 98.598045,112.011269 98.787651,112.034111 
	C99.308823,112.986443 99.830002,113.938782 100.690796,114.916077 
M98.493256,115.518341 
	C98.493256,115.518341 98.469528,115.480225 98.493256,115.518341 
z"/>
<path fill="#414141" opacity="1.000000" stroke="none" 
	d="
M94.993141,114.050758 
	C95.192947,112.880447 95.392754,111.710144 95.898956,111.071793 
	C96.085442,112.376335 95.965538,113.148926 95.845627,113.921509 
	C95.845627,113.921509 95.940392,113.957855 95.684120,113.915970 
	C95.427849,113.874084 94.993141,114.050758 94.993141,114.050758 
z"/>
<path fill="#F6F6F6" opacity="1.000000" stroke="none" 
	d="
M97.062866,117.402298 
	C97.513596,117.155464 97.938492,117.093552 98.686722,117.015945 
	C98.510010,117.391716 98.009956,117.783180 97.250877,118.066284 
	C96.991859,117.957909 97.037033,117.587219 97.062866,117.402298 
z"/>
<path fill="#C4C4C4" opacity="1.000000" stroke="none" 
	d="
M96.155876,113.762527 
	C95.965538,113.148926 96.085442,112.376335 96.344849,111.238297 
	C96.484337,110.872849 96.456078,110.932373 96.771790,110.962975 
	C97.097954,111.214264 97.108406,111.434952 97.118858,111.655647 
	C96.901276,112.304947 96.683701,112.954239 96.155876,113.762527 
z"/>
<path fill="#C4C4C4" opacity="1.000000" stroke="none" 
	d="
M95.021370,114.031769 
	C94.993141,114.050758 95.427849,113.874084 95.662354,113.870132 
	C95.929329,114.355034 95.961815,114.843903 96.100479,115.685966 
	C95.879173,115.791328 95.551682,115.543488 95.060616,114.817184 
	C94.897041,114.338730 95.036606,113.946014 95.036606,113.946014 
	C95.036606,113.946014 95.049599,114.012787 95.021370,114.031769 
z"/>
<path fill="#414141" opacity="1.000000" stroke="none" 
	d="
M94.777267,113.842499 
	C95.036606,113.946014 94.897041,114.338730 94.916962,114.546165 
	C94.797234,114.415398 94.657578,114.077187 94.777267,113.842499 
z"/>
<path fill="#251818" opacity="1.000000" stroke="none" 
	d="
M97.263824,111.667610 
	C97.108406,111.434952 97.097954,111.214264 96.755188,110.991425 
	C96.703255,111.037292 96.983650,111.085297 97.690353,111.111961 
	C98.116646,111.090614 98.044792,111.033501 97.832626,111.175034 
	C97.635536,111.483070 97.650612,111.649582 97.665695,111.816101 
	C97.665695,111.816101 97.408791,111.679573 97.263824,111.667610 
z"/>
<path fill="#FEFEFE" opacity="1.000000" stroke="none" 
	d="
M100.905563,119.083359 
	C101.089821,118.929344 101.490700,118.980881 102.090683,118.969696 
	C102.954391,118.926704 103.218109,118.894913 103.481819,118.863129 
	C103.528969,119.042618 103.576126,119.222107 103.497559,119.649963 
	C103.139671,119.907379 102.907501,119.916428 102.329330,119.968719 
	C101.562660,119.753761 101.141983,119.495567 100.905563,119.083359 
z"/>
<path fill="#ECECEC" opacity="1.000000" stroke="none" 
	d="
M103.616203,118.443161 
	C103.218109,118.894913 102.954391,118.926704 102.292244,118.955139 
	C102.166260,118.642548 102.438713,118.333321 102.881233,117.754974 
	C103.284401,117.664963 103.517494,117.844070 103.616203,118.443161 
z"/>
<path fill="#616161" opacity="1.000000" stroke="none" 
	d="
M125.392883,165.473785 
	C125.431450,165.461349 125.354309,165.486206 125.392883,165.473785 
z"/>
<path fill="#8C2B2D" opacity="1.000000" stroke="none" 
	d="
M134.666718,175.961273 
	C134.720383,176.229889 134.558533,176.514969 134.153625,176.877502 
	C134.090759,176.629227 134.270981,176.303482 134.666718,175.961273 
z"/>
<path fill="#C4C4C4" opacity="1.000000" stroke="none" 
	d="
M97.942253,111.890831 
	C97.650612,111.649582 97.635536,111.483070 97.800613,111.142151 
	C98.290947,111.102791 98.601120,111.237854 98.849472,111.703514 
	C98.598045,112.011269 98.408432,111.988419 97.942253,111.890831 
z"/>
<path fill="#F6F6F6" opacity="1.000000" stroke="none" 
	d="
M98.481392,115.499283 
	C98.469528,115.480225 98.493256,115.518341 98.481392,115.499283 
z"/>
</svg>