<svg version="1.1" id="Layer_1" xmlns="http://www.w3.org/2000/svg" xmlns:xlink="http://www.w3.org/1999/xlink" x="0px" y="0px"
	 width="100%" viewBox="0 0 225 224" enable-background="new 0 0 225 224" xml:space="preserve">
<path fill="#FEFEFE" opacity="1.000000" stroke="none" 
	d="
M0.999998,165.000000 
	C1.000000,110.406097 1.000000,55.812199 1.000000,1.000000 
	C55.687366,1.000000 110.375023,1.000000 165.530945,1.113034 
	C165.999207,1.226067 165.994125,1.452079 165.714325,1.681945 
	C161.657333,9.068484 157.064545,15.922867 154.276230,23.446047 
	C148.816025,38.178410 150.616333,53.654667 151.303207,68.955589 
	C151.743347,78.760674 152.350388,88.593704 152.043915,98.387978 
	C151.651947,110.915718 146.745178,121.807426 138.161758,131.166977 
	C123.839996,116.825188 109.797707,102.763252 95.164482,88.109558 
	C100.029854,85.070801 104.617661,82.159492 109.254829,79.329071 
	C111.477417,77.972466 113.202438,78.180298 115.258766,80.315140 
	C123.221771,88.582176 131.449112,96.595512 139.624405,104.656281 
	C141.102203,106.113373 142.798294,107.349075 144.834564,109.056808 
	C146.518051,103.919548 148.009262,100.090309 143.340088,96.044769 
	C137.072891,90.614662 131.543030,84.330681 125.740257,78.370789 
	C124.926102,77.534592 124.359520,76.457352 123.099167,74.670616 
	C131.430176,74.670616 138.688568,74.670616 146.468918,74.670616 
	C146.132812,70.134918 145.835327,66.120430 145.524826,61.930382 
	C140.951920,61.930382 137.127518,61.914356 133.303268,61.932961 
	C106.711426,62.062313 86.782486,74.176353 72.914894,96.350517 
	C62.925987,112.322693 62.279289,130.283234 63.260960,148.474121 
	C63.834976,159.110947 64.787270,169.842072 63.957180,180.404068 
	C63.279770,189.023483 61.641388,198.177567 57.806252,205.769684 
	C53.844810,213.611847 52.074547,219.348679 60.000000,225.000000 
	C40.406528,225.000000 20.813059,225.000000 1.000000,225.000000 
	C1.000000,205.646332 1.000000,186.291824 1.337936,166.514618 
	C4.189071,169.140671 6.702270,172.189438 8.830032,174.770630 
	C14.373650,171.665497 18.371361,169.426270 22.369072,167.187027 
	C23.080967,166.697586 23.792860,166.208160 24.504755,165.718719 
	C34.638653,176.875702 44.772549,188.032684 55.066410,199.365799 
	C58.329247,193.353714 58.202953,189.113007 53.074207,184.894958 
	C45.792519,178.906296 39.164787,172.122467 32.257626,165.678406 
	C32.639893,164.947647 33.022160,164.216888 33.404430,163.486130 
	C41.721863,162.903488 50.039295,162.320847 58.790283,161.707825 
	C58.584560,157.908188 58.380630,154.141708 58.096104,148.886612 
	C47.635197,150.173798 37.179062,150.279755 27.453224,152.998367 
	C18.237310,155.574448 9.787002,160.889481 0.999998,165.000000 
z"/>
<path fill="#FEFEFE" opacity="1.000000" stroke="none" 
	d="
M165.994125,1.452079 
	C165.994125,1.452079 165.999207,1.226067 165.999603,1.113034 
	C185.926193,1.000000 205.852371,1.000000 226.000000,1.000000 
	C226.000000,20.353664 226.000000,39.708176 225.653717,59.598167 
	C222.973602,57.107597 220.639801,54.081535 218.305984,51.055473 
	C213.905212,54.065132 210.954483,55.561150 208.237732,57.402370 
	C205.400711,59.325108 203.414429,58.931034 200.986191,56.467136 
	C192.240631,47.593166 183.270538,38.940231 174.360977,30.228622 
	C173.503586,29.390285 172.477661,28.724339 171.777573,28.173271 
	C167.541504,34.226971 169.344711,38.577522 174.324829,42.927879 
	C180.317032,48.162354 185.682114,54.116726 191.283737,59.793907 
	C191.999191,60.519005 192.504410,61.451534 193.924835,63.423111 
	C184.831421,63.423111 176.941849,63.423111 168.626114,63.423111 
	C168.996460,68.188553 169.297241,72.058861 169.590485,75.832390 
	C190.592087,77.719536 209.417084,73.565445 226.000000,61.000000 
	C226.000000,115.593681 226.000000,170.187363 226.000000,225.000000 
	C171.645966,225.000000 117.291641,225.000000 62.397041,224.649490 
	C76.096703,205.405792 77.879890,183.682175 76.620560,161.101776 
	C75.972488,149.481583 75.682236,137.780243 76.277229,126.169220 
	C76.865479,114.690216 81.320999,104.372871 88.939552,95.401596 
	C103.111588,109.737236 117.001068,123.787056 131.122223,138.071228 
	C129.512283,139.226379 127.700844,140.661819 125.761086,141.895508 
	C114.663712,148.953506 114.577606,149.011993 105.321243,139.635605 
	C98.127823,132.348892 91.153725,124.845688 83.660324,116.996864 
	C80.629730,124.012619 80.386154,128.973282 86.038383,133.174530 
	C89.213432,135.534485 91.781876,138.720306 94.574852,141.581665 
	C97.161644,144.231766 99.683533,146.945221 102.233994,149.630798 
	C102.051445,150.073044 101.868889,150.515305 101.686340,150.957565 
	C94.968391,150.957565 88.250443,150.957565 81.115265,150.957565 
	C81.477875,155.560562 81.774246,159.322769 82.144379,164.021317 
	C88.792404,163.690445 95.220512,163.553909 101.615578,163.020874 
	C131.110352,160.562408 157.654602,138.361862 162.801926,109.227501 
	C165.306717,95.050140 164.013580,80.081879 163.434616,65.511581 
	C162.789246,49.270050 161.873123,33.196362 169.798004,18.181461 
	C174.615997,9.053038 174.584335,9.034398 166.837646,1.967234 
	C166.598694,1.749242 166.277161,1.621760 165.994125,1.452079 
z"/>
<path fill="#070707" opacity="1.000000" stroke="none" 
	d="
M165.714325,1.681946 
	C166.277161,1.621760 166.598694,1.749242 166.837646,1.967234 
	C174.584335,9.034398 174.615997,9.053038 169.798004,18.181461 
	C161.873123,33.196362 162.789246,49.270050 163.434616,65.511581 
	C164.013580,80.081879 165.306717,95.050140 162.801926,109.227501 
	C157.654602,138.361862 131.110352,160.562408 101.615578,163.020874 
	C95.220512,163.553909 88.792404,163.690445 82.144379,164.021317 
	C81.774246,159.322769 81.477875,155.560562 81.115265,150.957565 
	C88.250443,150.957565 94.968391,150.957565 101.686340,150.957565 
	C101.868889,150.515305 102.051445,150.073044 102.233994,149.630798 
	C99.683533,146.945221 97.161644,144.231766 94.574852,141.581665 
	C91.781876,138.720306 89.213432,135.534485 86.038383,133.174530 
	C80.386154,128.973282 80.629730,124.012619 83.660324,116.996864 
	C91.153725,124.845688 98.127823,132.348892 105.321243,139.635605 
	C114.577606,149.011993 114.663712,148.953506 125.761086,141.895508 
	C127.700844,140.661819 129.512283,139.226379 131.122223,138.071228 
	C117.001068,123.787056 103.111588,109.737236 88.939552,95.401596 
	C81.320999,104.372871 76.865479,114.690216 76.277229,126.169220 
	C75.682236,137.780243 75.972488,149.481583 76.620560,161.101776 
	C77.879890,183.682175 76.096703,205.405792 61.928383,224.649490 
	C61.555553,225.000000 61.111111,225.000000 60.333332,225.000000 
	C52.074547,219.348679 53.844810,213.611847 57.806252,205.769684 
	C61.641388,198.177567 63.279770,189.023483 63.957180,180.404068 
	C64.787270,169.842072 63.834976,159.110947 63.260960,148.474121 
	C62.279289,130.283234 62.925987,112.322693 72.914894,96.350517 
	C86.782486,74.176353 106.711426,62.062313 133.303268,61.932961 
	C137.127518,61.914356 140.951920,61.930382 145.524826,61.930382 
	C145.835327,66.120430 146.132812,70.134918 146.468918,74.670616 
	C138.688568,74.670616 131.430176,74.670616 123.099167,74.670616 
	C124.359520,76.457352 124.926102,77.534592 125.740257,78.370789 
	C131.543030,84.330681 137.072891,90.614662 143.340088,96.044769 
	C148.009262,100.090309 146.518051,103.919548 144.834564,109.056808 
	C142.798294,107.349075 141.102203,106.113373 139.624405,104.656281 
	C131.449112,96.595512 123.221771,88.582176 115.258766,80.315140 
	C113.202438,78.180298 111.477417,77.972466 109.254829,79.329071 
	C104.617661,82.159492 100.029854,85.070801 95.164482,88.109558 
	C109.797707,102.763252 123.839996,116.825188 138.161758,131.166977 
	C146.745178,121.807426 151.651947,110.915718 152.043915,98.387978 
	C152.350388,88.593704 151.743347,78.760674 151.303207,68.955589 
	C150.616333,53.654667 148.816025,38.178410 154.276230,23.446047 
	C157.064545,15.922867 161.657333,9.068484 165.714325,1.681946 
z"/>
<path fill="#040404" opacity="1.000000" stroke="none" 
	d="
M0.999998,165.250000 
	C9.787002,160.889481 18.237310,155.574448 27.453224,152.998367 
	C37.179062,150.279755 47.635197,150.173798 58.096104,148.886612 
	C58.380630,154.141708 58.584560,157.908188 58.790283,161.707825 
	C50.039295,162.320847 41.721863,162.903488 33.404430,163.486130 
	C33.022160,164.216888 32.639893,164.947647 32.257626,165.678406 
	C39.164787,172.122467 45.792519,178.906296 53.074207,184.894958 
	C58.202953,189.113007 58.329247,193.353714 55.066410,199.365799 
	C44.772549,188.032684 34.638653,176.875702 24.504755,165.718719 
	C23.792860,166.208160 23.080967,166.697586 22.369072,167.187027 
	C18.371361,169.426270 14.373650,171.665497 8.830032,174.770630 
	C6.702270,172.189438 4.189071,169.140671 1.337936,166.045959 
	C1.000000,166.000000 1.000000,165.500000 0.999998,165.250000 
z"/>
<path fill="#070707" opacity="1.000000" stroke="none" 
	d="
M226.000000,60.750000 
	C209.417084,73.565445 190.592087,77.719536 169.590485,75.832390 
	C169.297241,72.058861 168.996460,68.188553 168.626114,63.423111 
	C176.941849,63.423111 184.831421,63.423111 193.924835,63.423111 
	C192.504410,61.451534 191.999191,60.519005 191.283737,59.793907 
	C185.682114,54.116726 180.317032,48.162354 174.324829,42.927879 
	C169.344711,38.577522 167.541504,34.226971 171.777573,28.173271 
	C172.477661,28.724339 173.503586,29.390285 174.360977,30.228622 
	C183.270538,38.940231 192.240631,47.593166 200.986191,56.467136 
	C203.414429,58.931034 205.400711,59.325108 208.237732,57.402370 
	C210.954483,55.561150 213.905212,54.065132 218.305984,51.055473 
	C220.639801,54.081535 222.973602,57.107597 225.653717,60.066826 
	C226.000000,60.000000 226.000000,60.500000 226.000000,60.750000 
z"/>
</svg>