<?xml version="1.0" encoding="utf-8"?>
<!-- Generator: Adobe Illustrator 27.2.0, SVG Export Plug-In . SVG Version: 6.00 Build 0)  -->
<svg version="1.1" id="Layer_1" xmlns="http://www.w3.org/2000/svg" xmlns:xlink="http://www.w3.org/1999/xlink" x="0px" y="0px"
	 viewBox="0 0 1920 612" style="enable-background:new 0 0 1920 612;" xml:space="preserve">
<style type="text/css">
	.st0{fill:#0C2B3F;}
	.st1{fill:#EFEEEA;}
	.st2{fill:#FFD13C;}
	.st3{fill:#F9A234;}
	.st4{fill:#F8A234;}
	.st5{fill:#E34C4F;}
	.st6{fill:#EF5152;}
	.st7{fill:#F16A34;}
	.st8{fill:#0F1F2F;}
	.st9{fill:#0F2434;}
	.st10{fill:#FACE2C;}
	.st11{fill:#0C1B29;}
	.st12{fill:#122230;}
	.st13{fill:#0B1D2D;}
	.st14{fill:#EE5152;}
	.st15{fill:#534C50;}
	.st16{fill:#F1F4EE;}
	.st17{fill:#EDF0F3;}
	.st18{fill:#EC474B;}
	.st19{fill:#041220;}
	.st20{fill:#FEFEFE;}
	.st21{fill:#F2F4F5;}
	.st22{fill:#534C51;}
	.st23{fill:#E34D4E;}
	.st24{fill:#E33B4B;}
	.st25{fill:#3F3A3B;}
	.st26{fill:#464043;}
	.st27{fill:#0D2A3E;}
	.st28{fill:#544D50;}
	.st29{fill:#5AB7BE;}
	.st30{fill:#4E9CA1;}
</style>
<path class="st0" d="M1098.2,111.9c0.3,0,0.6,0.1,0.9,0.9c0.5,0.7,0.8,0.9,1.1,1.1c0,0-0.1,0-0.1,0.3c1,1.1,2,1.9,2.7,3
	c1.8,4.4,5.3,5.6,9.7,5c0,0,0.2,0.1,0.1,0.6c1.2,4.1,3.1,6.8,7.6,6.1c0,0-0.1,0.1-0.1,0.5c-0.7,4.6,1.3,6.6,5.4,7
	c0.9,0.1,1.9,0.4,2.8,0.6c0,0-0.1,0-0.1,0.3c1,1.8,1.9,3.3,3.2,4.9c1.4,1.7,3.2,3,3.6,4.7c0.9,3.7,2.6,2.5,4.6,1.3
	c0,0,0.3,0.2,0.3,0.6c-0.1,0.4,0.2,0.7,0.2,0.7l0.4-0.2c0,0,0.2,0.1,0.1,0.6c0.8,1.3,1.8,2.2,2.8,3c0,0-0.1,0.1-0.1,0.4
	c0.8,0.9,1.6,1.4,2.4,2c0,0,0.3,0.2,0.2,0.6c0.2,0.4,0.5,0.5,0.8,0.6c0,0,0.1,0.1,0.1,0.5c0.3,0.5,0.6,0.7,0.9,0.9
	c0,0-0.1,0.1-0.1,0.3c0.4,0.4,0.7,0.7,1,0.9c2.2,3.1,4.4,6.2,6.7,10.1c0.9,1.2,1.7,1.7,2.6,2.1c0,0,0.3,0.2,0.2,0.6
	c0.2,0.6,0.5,0.7,0.8,0.9c-0.1,0.1-0.3,0.3-0.3,0.6c1.1,1.3,2.1,2.5,3.1,3.7c0,0-0.1,0-0.1,0.4c0.7,1.1,1.4,1.9,2.1,2.7
	c0,0-0.1,0-0.1,0.3c0.5,0.7,0.9,1.1,1.3,1.5c0,0-0.1,0.1-0.2,0.3c-0.3,4,1.7,6.4,5,7.8c0,0-0.1,0-0.1,0.4c-1.5,5.8,2.5,8,5.8,10.7
	c0,0,0.1,0.4,0.1,1.1c1.8,5.2,3.5,9.7,5.4,14.3c0.2,0.4,1.2,0.4,1.8,0.6c2.3,6.4,4.7,12.8,6.7,19.9c1.5,8.5,3.3,16.3,4.9,24.3
	c0.3,0.7,0.7,1.3,1.2,2.2c0,0.8,0,1.2,0,2.1c-0.2,1.9-0.8,3.3-0.6,4.8c0.8,7.7,1.6,15.4,2.7,23.1c2.3,15.9,0.6,31.7-1.8,47.4
	c-0.6,4.1-0.9,8.2-1.3,12.7c-2.1,8.2-4.1,16-6.6,23.8c-1.7-0.2-3-0.3-4.6-0.6c-10.8-0.6-17.3,4.9-20.8,14.4
	c-13.1-6.6-25.7-7-38.1-0.1c-12.4,6.9-18.4,18-19.6,31.9c-21.4-3.2-30.6,2.8-38.7,24.9c-8.5-9.8-18.9-14.3-31.6-10.3
	c-12.6,3.9-19.2,13.3-20.7,27.7c-12.5-18.7-17.5-38.2-18.4-59.3c1.5-1.2,2.8-2.5,4.2-2.6c3.8-0.3,7.7-0.1,12.1-0.1
	c-3-6.7-5.6-12.4-7.7-18.2c3.8-0.1,7.1,0.3,10.4-0.2c4.2-0.6,9.6,0.2,10.5-6.5c0.3-0.4,0.4-0.8,0.6-1.4c1.5-3.1,2.8-5.9,4.5-8.8
	c2.4-5.4,4.5-10.7,6.9-15.9c15.1,12.2,26.5,27,35.4,43.7c3.9,7.3,7,14.9,10.5,22.7c0.5-0.7,0.9-1.1,1.2-1.7
	c6.9-16,11.3-32.6,12.4-50c1.5-22-1.2-43.5-9-64.2c-6.5-17.3-15.1-33.3-27.7-47.2c-0.5-0.9-0.8-1.5-1.2-2.6c0-7.9,0-15.3,0-23.1
	c-1-10.4-1.8-20.3-3-30.3c-0.6-5.7-1.6-11.3-2.7-16.9c-0.5-2.6-2-5-3.1-7.7c-0.2-0.8-0.3-1.2-0.3-1.9c0-0.4,0-0.6,0-1.1
	c-0.2-0.5-0.5-0.7-0.8-0.8c0,0,0.1,0,0-0.3c-1.8-7.3-3.5-14.2-5.2-21.5c-0.4-1.3-0.8-2.1-1.1-3c0.1,0,0,0.1,0.1-0.3
	c0-3.7-0.8-6.5-2-9.7c-1.6-4.1-5.8-8.9-1.7-14.2c0.2-0.5,0.2-0.8,0.2-1.2c-0.1,0.4-0.2,0.9-0.8,1.3c-1.5-0.9-2.6-1.7-3.7-2.7
	c-1.1-1-2.1-2.1-3.1-3.2c0.1,0,0,0.1,0.1-0.3c0.2-0.7,0.4-1,0.3-1.3c-1.3-4.9-2.6-9.8-4.1-14.6c-0.1-0.2-1.4,0-2.4,0.1
	c-0.4,0-0.6,0-0.8,0c0,0,0,0.1,0-0.3c-0.3-0.8-0.7-1.3-0.9-1.8c0,0,0,0,0-0.4c-0.3-4.2,0-8.4-5-9.7c0,0,0,0,0-0.4
	c-1.2-3.8-2.3-7.3-3.7-11.3c1.6,0.2,2.3,0.2,3,0.4c8.4,2.4,16.8,4.9,25.2,7.3c1.8,0.5,3.8,0.5,5.8,0.7c0,0-0.3,0.1-0.2,0.4
	c6.1,3.5,11.7,7.8,18.9,7.9c0,0,0,0,0,0.4c1.8,1,3.5,1.6,5.3,2.3c0,0-0.3,0.2-0.1,0.4c1.3,1.1,2.5,2.1,3.8,3.3
	c2.4,1.1,4.8,1.8,7.2,2.5c0,0-0.1,0,0,0.3c0.7,0.4,1.3,0.6,1.9,0.8c0,0-0.1,0,0,0.3c1.6,2.2,2.8,4.9,6.2,3.5c0,0-0.1,0.1-0.1,0.4
	C1090.6,113.5,1095.6,110.8,1098.2,111.9 M1068.2,119.5c-0.8,4.7-3.9,6.7-9.9,6.8c4.3,3.7,10.4,4.2,9.6,9.3c2.8-2.8,5.8-5.7,8.6-8.5
	C1072.6,126.2,1069.4,123.8,1068.2,119.5 M1141.7,343.9c-1.4-2.3-2.9-4.5-4.9-7.7c1.5,7.2-3.7,7.9-8.1,9.9c4.9,0.7,8.2,2.7,9.1,8.1
	c0.6-5.8,3.4-8.5,8.8-8.9C1145.2,344.8,1143.8,344.4,1141.7,343.9z"/>
<path class="st0" d="M787,144c0.8-1.2,1.3-2.6,2.4-3.6c6-5.4,12.1-10.6,18.8-16.2c2-0.8,3.5-1.1,4.8-1.8c2.2-1.2,4.2-2.7,6.3-4.1
	c1.3-0.8,2.3-2.4,3.3-3.9c0.7-1.2,1.5-2.4,2.2-3.6c0,0,0.1,0.1,0.4,0.1c3.1-2,5.9-4.1,8.6-6.1c0,0,0,0.1,0.4,0.1
	c4.4-0.6,8.1-1.7,9.6-6.1c0,0,0,0.1,0.4,0.1c2.8-1.3,5.3-2.6,7.7-4c9-4,18-8.1,27-12.1c1.4-0.6,2.8-1.2,5.1-1.9
	c6-1.2,11.2-2.5,16.4-3.6c2-0.4,4.1-0.3,5.7-0.5c-1.1,4.9-1.9,8.5-2.7,12.2c0,0,0,0-0.3,0.1c-0.4,0.8-0.5,1.4-0.8,1.9
	c-0.2-0.1,0.2,0.1-0.2,0c-0.9,0.8-1.5,1.8-2.3,2.6c-1.6,4.1-3,8.3-4.5,12.5c-0.1,0,0.1,0-0.2-0.1c-3.4,3.8-6.7,7.4-7.1,12.7
	c-0.1,1.9-0.4,4.3-1.5,5.7c-6.3,7.8-6.5,17.4-8.4,26.4c0,0,0.1,0-0.2,0c-0.5,0.6-0.7,1.3-1,2.3c-2.7,10.8-5.3,21.2-7.8,32
	c-0.9,4.9-1.8,9.3-2.5,13.8c-0.1,0.8,0.9,1.8,1.4,3.1c-0.1,0.8-0.2,1.2-0.7,1.8c-3,1.7-2.9,3.7-1.2,6.4c-0.2,5.1-0.3,9.8-0.7,14.7
	c-0.7,1.8-1.2,3.5-1.3,5.2c-0.4,7.9-0.7,15.8-1.1,24.1c-28.7,35-41,74.5-36.5,119.3c-17.8-8.9-31.4-5.7-50.7,11.8
	c-0.3-0.9-0.5-1.6-0.8-2.3c-0.3-0.9-0.6-1.9-1.1-2.8c-7.9-16.8-21.6-23.9-40.1-23.4c-4,0.6-5.6-1.6-6.4-4.5
	c-0.5-1.9-0.3-3.9-0.5-5.9c-1.3-16.5-2.6-33.1-3.6-49.9c0.6-4.1,0.6-7.9,1.2-11.7c1.3-8.8,2.4-17.7,4.6-26.3
	c2.9-11.5,6.7-22.8,10.2-34.2c0.3-1,1.7-1.6,2.7-2.4c0.4-2.8,0-6.5,1.3-9.4c4-8.5,8.8-16.6,13-25c0.9-1.8,0.9-4.1,1.3-6.1
	c0,0,0,0.1,0.3,0c0.5-0.7,0.7-1.3,0.9-1.9c0,0,0.1,0.1,0.3,0.1c2-1.9,5.9-0.8,6.3-4.9c0.6-4.9,2.6-9,8.4-8.3c0-2.1,0-3.9,0.4-5.7
	c1.5-1.2,2.8-2.3,3.7-3.7c2-3.4,3.3-7.9,8-5.3c1.2-1.9,2.1-3.5,3.1-4.8c0.5,0.2,0.8,0.2,1.1,0.2c-0.4-0.1-0.8-0.2-1.3-0.7
	C788.3,145.6,787.7,144.8,787,144 M790.3,244.3c-2.2,1.3-0.8,6.1-6.1,4.9c-2.5-0.6-6.1,3.2-8.7,5.5c3.7,1.3,7.4,2.6,11.2,3.8
	c2.7,0.9,4.2,2.2,4.1,5.6c0,2.9,1.9,5.8,3.7,8.6c1.2-2.1,3.4-4.2,3.6-6.3c0.3-5,3-7.1,7.2-8.4c1-0.3,1.8-1.4,2.9-2.4
	c0,0,0.3,0.1,1.2,0.1c1.8-0.2,3.7-0.4,5.5-0.6c0-0.6,0-1.1,0-1.7c-1.8-0.5-3.6-1.2-5.4-1.6c-6.8-1.2-12.6-3.3-13-11.7
	c-0.1-2.4-1.5-4.7-2.3-7.1c-0.5,0-1,0.1-1.5,0.1c-0.2,1.9-0.4,3.9-0.6,6.3c0,0-0.2,0.4-0.7,0.8c-0.1,0.6-0.3,1.2-0.4,2.4
	C791,243.2,791,243.6,790.3,244.3z"/>
<path class="st1" d="M1048.8,172c0,0.2,0.1,0.4-0.2,1c0,1.3,0.2,2.1,0.5,3c0,0,0-0.1,0,0.3c0,0.8,0,1.3-0.2,1.8
	c-0.1,0.4,0.1,0.6,0.4,0.9c0.2,0,0.7,0,0.8,0.3c0.2,0.7,0.2,1.2,0,1.8c-0.7,4.3-1.1,8.4-1.5,12.5c1.2-1.3,2.3-2.5,3.5-3.8
	c0.4,2.7,0.9,5.5,1.3,8.3c0,0.1-0.1,0.2-0.2,0.6c-0.1,5-0.3,9.6-0.1,14.1c0.6,12.3,1.3,24.7,2,37c0,0.7,0.6,1.4,1.1,2.6
	c-0.5,8.5-1.2,16.5-1.9,24.9c-3.3,15.8-6.2,31.2-9.9,46.5c-2.2,9.5-5.5,18.7-8.3,28c-2.1,5.3-4.2,10.6-7,16.1
	c-4.5,0.8-6.6,2.6-6.2,6.9c0.1,1.3-1.2,3.7-2.2,3.9c-5.7,1.1-11.6,2.1-17.4,2.2c-10.9,0.3-21.9,0-32.9,0.2c-3.6,0.1-4.6-1.2-4.4-4.6
	c0.5-8.7,0.8-17.5,1-26.3c0.1-2.7-0.6-5.5-0.9-8.6c0-1.8,0.1-3.2,0.6-4.7c0.7-1,1.3-1.8,1.4-2.7c1-8.1,2-16.2,3.1-25.1
	c1,1.8,1.4,2.6,1.9,3.5c0.4-0.2,0.9-0.3,1.3-0.5c-1-2.8-2.5-5.5-3-8.3c-0.5-2.7,0-5.6,0.1-8.4c0.6-0.1,1.1-0.1,1.7-0.2
	c-1-1.6-2.1-3.2-2.7-4.1c1.5-1.3,3.3-2.2,3.4-3.1c0.3-6.1,0.2-12.1,0.2-18.2c0-4.2,0-8.4,0-12.7c-0.6-0.5-2-1.1-2.8-2.2
	c-2-2.9-4.8-4.1-6.6-2.3c-0.2,0-0.5-0.3-0.7-0.7c-1.1-2-2.7-3.7-2.7-5.5c-0.2-10.8-0.1-21.6,0.2-32.4c0.8,0,1.2,0.1,1.8,0.5
	c1.6,0.4,3.2,0.5,4.8,0.5c-0.3-0.6-0.6-1.2-0.5-1.8c1.1-0.2,1.8-0.3,3-0.3c6.5-2.7,13.3-4.7,18.8-8.4c18.1-12.3,25-38.3,15.8-56.8
	c-1-2.1-1.9-3.9-2.9-5.9c-0.1-0.5-0.3-0.7-0.7-1.1c-0.5-0.8-0.9-1.2-1.3-1.7c0,0,0.1,0,0-0.3c-4.2-4.2-8.3-8.2-12.4-12.1
	c-0.1,0-0.2,0-0.3-0.2c-0.4-0.4-0.7-0.5-1.1-0.5c0,0.1,0.1,0,0-0.2c-0.5-0.3-0.8-0.4-1.3-0.5c-0.2-0.1-0.7-0.1-0.8-0.4
	c-1.8-1-3.5-1.8-5.4-2.5c-0.2,0-0.3,0.4-0.3,0.4c0,0-0.1,0-0.3-0.2c-0.2-0.2-0.6-0.2-0.8-0.4c-0.8-0.5-1.5-0.8-2.2-1
	c0,0,0.1,0,0-0.2c-0.4-0.4-0.7-0.5-1.4-0.7c-1.8-0.4-3.2-0.7-5-1c-0.8-0.1-1.2,0-1.6-0.1c0-0.1,0-0.3-0.1-0.7c-5.2-1-6.2-4-6-8.8
	c0.4-9.4,0.1-18.8,0.6-28.3c2.8-0.1,5.2-0.2,8-0.2c14-1,27.3-3,40.1-7.9c0,0,0.2-0.1,0.5,0.3c2.8,5.1,5.4,9.9,8,14.7
	c0,0,0,0,0.1,0.4c1.7,3.5,3.3,6.6,4.9,9.7c0,0,0,0,0,0.3c0.3,0.8,0.6,1.3,0.9,1.8c0,0,0.1-0.1,0,0.3c0.2,0.7,0.4,1.1,0.7,1.7
	c2.1,4.9,4.1,9.5,6.2,14.1c0,0,0.1-0.1,0.1,0.3c1.4,4.3,2.8,8.3,4.2,12.6c-0.9,1.4-2.2,2.3-2.7,3.4c-0.4,1.3-0.6,3.8,0,4.2
	c6,3.5,8.4,8.9,6.9,15.9c-0.3,1.3,0.5,3.3,1.5,4.1c3.5,2.8,4.9,7.5,2.9,12.3c1.4,0.6,2.9,1.2,4.4,1.8c0,0-0.1,0,0,0.2
	C1048.3,171.6,1048.5,171.8,1048.8,172z"/>
<path class="st2" d="M1001,542.8c-5.7,0.7-11.5,1.5-17.7,1.7c-6.1-2.7-13.3-1.9-16.3,1.4c-0.8,0-1.5,0.1-2.8-0.2
	c-1.1-0.1-1.6,0-2.2,0.2c-3,0-6.1,0.1-9.7-0.3c-2.4-1.2-4.2-2.4-6.1-2.6c-4.8-0.3-9.6-0.1-14.5-0.1c0-0.5,0-0.9,0-1.4
	c0.8-0.4,1.6-0.8,3.5-1.7c-8.9,0-16.5,0-24.2,0c0-0.2,0-0.4-0.1-0.7c1.4-0.1,2.8-0.3,4.2-0.4c0-0.5-0.1-1-0.1-1.5
	c-2.3,0.2-4.7,0.5-7,0.7c0,0,0,0-0.4,0c-5.7-0.3-10.3-1.9-13.6-6.4c-1.7,4.8-4.8,1.4-7.4,1.1c-1.9-0.2-3.7-0.4-5.6-0.6
	c-11.2-4.9-22.6-9.5-33.6-14.8c-6.6-3.1-12.8-7.1-18.8-11.2c-20.2-13.4-38.2-29.3-53.4-49.1c-0.5-1.1-0.9-1.5-1.3-1.9
	c0,0,0.1,0.1,0.1-0.3c-4.6-9.8-9.8-18.9-18.1-25.7c0,0,0.2,0,0.2-0.3c0.7-1.3,1.4-2.4,1.7-2.8c-1.3-1.8-2.5-3.4-3.5-5.3
	c10.9-6.8,22.4-7.6,33.9-3.3c3.3,1.2,5.4,0.6,8.1-1c11.4-6.8,23.4-9,36-3.4c1.5,0.7,3.2,0.7,5,1.3c1.3,1.4,2.5,2.4,4,3.6
	c6.6,5.8,11.9,12.3,13.5,20.8c0.7,3.8,2.6,4.5,5.7,5.4c3.4,1,6.8,2.6,9.8,4.6c7.9,5.4,11.4,13.5,12.2,22.9
	c17.8,1.9,26.8,12.6,29,27.7c7.7,0,14.6-1,21.2,0.3c4.6,0.9,7.1,0.6,10.1-3c12.2-14.7,34.9-17.1,50.2-5.4c4.1,3.2,7.7,7,11.5,10.6
	c10.3-10.6,19.5-10,31-3c0.6-0.5,1.3-0.9,1.8-1.5c6.2-9.1,14.6-13.6,25.7-13.5c1.2,0,3-1.6,3.7-2.9c8.9-16.7,31-21.7,44.3-9.3
	c3.8,3.6,6.9,4.2,11.6,2.4c0.8,0,1.2,0,1.7,0c0,0,0,0,0,0.2c0,0.2,0,0.7,0,1.1c-1.4,3.5-2.7,6.6-4,9.7c-8.1,6.5-15.9,13.6-24.5,19.5
	c-8.4,5.7-17.7,10.2-26.6,15.2c-2.4,1.4-4.8,2.8-7.8,4c-3.3-1.2-6-2.2-7.4-2.8c-1,2.1-1.3,3.4-2.1,4.1c-1.3,1-3.3,1.3-4.6,2.4
	c-2.7,2.3-5.3,3.5-9.2,2.9c-4.5-0.7-9.2-0.2-13.8-0.2c0,0.2,0,0.5,0,0.7c2.7,0.7,5.5,1.5,8.2,2.2c-0.1,0.3-0.1,0.7-0.2,1
	c-2.7-0.1-5.5-0.3-7.9-0.4c-1.4,1.6-2.7,3-4.1,4.5c0,0,0-0.1-0.4-0.1c-2.2-0.2-4.2-0.9-6-0.5c-3,0.5-5.8,1.8-8.7,2.4
	C1003.1,540.3,1000.8,539.7,1001,542.8z"/>
<path class="st3" d="M1122,474c-4.3,1.8-7.4,1.2-11.2-2.4c-13.3-12.4-35.4-7.4-44.3,9.3c-0.7,1.3-2.5,2.9-3.7,2.9
	c-11.1-0.2-19.5,4.4-25.7,13.5c-0.4,0.6-1.2,1-1.8,1.5c-11.5-7-20.7-7.7-31,3c-3.8-3.5-7.4-7.4-11.5-10.6
	c-15.3-11.7-38-9.3-50.2,5.4c-3,3.6-5.5,3.8-10.1,3c-6.6-1.2-13.5-0.3-21.2-0.3c-2.2-15.2-11.2-25.8-29-27.7
	c-0.8-9.4-4.3-17.5-12.2-22.9c-2.9-2-6.3-3.6-9.8-4.6c-3.1-0.9-5-1.5-5.7-5.4c-1.6-8.5-6.8-15-13.4-21.2c1.4-4.9,3-9.2,4.7-13.2
	c-0.1,2.9,1.1,3.2,3.5,3.1c16.6-0.6,31.2,8.8,37.2,24.2c1.7,4.4,2.2,9.2,3.3,13.9c11.4,1.9,17.7,8,18.1,18c0.2,1.6,0.3,2.9,0.4,3.7
	c3.6,0,6.9-0.7,9.7,0.2c5.1,1.6,7.5-0.7,9.1-4.8c2.8-7,6.3-13.9,8-21.2c2.9-12.6,4.6-25.5,7.2-38.2c5.7,0.3,11.1,0.5,16.7,0.9
	c0.7,1.6,1.1,2.9,1.5,4.3c0.3,0,0.7-0.1,1-0.1c0.2-1.8,0.4-3.6,1-5.4c6.4,0.1,12.4,0.2,18.2,0.7c0,5.4-0.3,10.6,0.5,15.6
	c2.6,15.4,5.8,30.7,13.9,44.3c3.7,6.3,9.1,11.7,14.1,17.1c2.3,2.4,4.7,2.2,6.1-1.9c1.8-5,5.8-8.2,10.9-10.2c7.7-3,14.1-0.2,20.5,4.2
	c4.1-7.9,9.7-13.7,18.3-16.1c8.5-2.4,16.6-1.6,23.7,3.3c2.2-3.5,4.1-6.6,6.1-9.7c6.6-10.3,16.3-15.1,28.2-16.1
	c9.6-0.9,17.9,2.1,25.9,7.4c1.8,2.2,3.5,4.1,5.1,5.9c0,0-0.1-0.1-0.3,0c-0.4,0.6-0.6,1.1-0.8,1.7c-2.9,3.9-5.8,7.8-9.4,11.9
	c-2.9,1-5.9,1-7.3,2.6c-2.6,3-4.3,6.9-6.4,10.4c-0.4-0.1-0.8-0.2-1.2-0.3c-0.4-1.8-0.7-3.6-0.9-4.3c-1,1.3-2.4,3.1-3.8,4.9
	c0,0,0,0-0.1-0.2C1123.1,473.7,1122.6,473.9,1122,474z"/>
<path class="st4" d="M837,414c-1.6-0.3-3.3-0.4-4.8-1c-12.7-5.7-24.6-3.4-36,3.4c-2.7,1.6-4.7,2.2-8.1,1c-11.6-4.3-23-3.4-34.2,3.4
	c-0.9,0.9-1.4,1.5-1.9,2c-4.4-8.9-9.3-17.5-12.9-26.7c-4.2-10.6-7.1-21.6-10.6-32.4c-0.4-1.2-0.5-2.6-0.3-4.4c2.2-1.1,4.1-1.6,6-2.1
	c18.1-0.5,31.8,6.6,39.7,23.4c0.4,0.9,0.7,1.8,1.1,2.8c0.3,0.7,0.5,1.4,0.8,2.3c19.3-17.5,32.9-20.7,50.8-11.4
	c0.6,1.8,0.5,3.1,0.9,4.4C830.6,390.4,833.8,402.2,837,414z"/>
<path class="st5" d="M1009.5,72.6c-12.7,5.3-26.1,7.3-40.1,7.9c-3.1-0.8-5.8-1.2-8.4-2c0-21.9,0-43.3,0-64.7c0-2.6,0.6-5.2,0.9-7.8
	c0,0,0,0,0.3-0.2c0.4-0.8,0.6-1.4,0.8-2c11,15.1,22.1,30,32.8,45.4C1000.9,56.5,1004.9,64.5,1009.5,72.6z"/>
<path class="st6" d="M963,3.6c-0.1,0.8-0.3,1.4-0.9,2c-0.7,0-1.1,0-1.5,0c0.4,0.1,0.9,0.3,1.3,0.4c-0.3,2.6-0.9,5.2-0.9,7.8
	c-0.1,21.4,0,42.8-0.5,64.7c-10.2-0.9-19.9-2.2-28.7-3.5c-0.1-0.1,0.7,0.4,1.7,1.1c-1.4,0.7-2.5,1.2-4,1.7
	c-6.2-1.6-11.9-3.3-17.7-4.9c0,0,0.1,0.1,0.1,0.1c12.9-19.8,25.7-39.6,38.6-59.3c1.2-1.9,2.9-3.5,4.9-5.5c0.9-0.9,1.2-1.5,1.4-2.1
	c0.8-1,1.6-2,2.7-3c0.5,0.1,0.6,0.2,0.8,0.3c-0.1-0.3-0.2-0.5-0.3-0.8c0,0,0.2-0.2,0.7,0.1c0.8,0.3,1,0.3,1.3,0.3
	C962.6,3,962.8,3.1,963,3.6 M958.7,9.2c-0.1-0.2-0.2-0.3-0.3-0.5C958.4,8.9,958.4,9.2,958.7,9.2z"/>
<path class="st7" d="M1154.5,447.1c-2-1.7-3.6-3.6-5-5.8c9.3,0.4,9.6-4.4,10.2-16c0.6-0.1,1.3-0.4,1.9-0.3c4.6,0.7,5.9-1.4,5.4-5.6
	c-0.3-2.3,0.2-4.8,0.3-7.6c5.9,2.2,7.3-0.9,7.6-5.3c0-0.7,0.1-1.3,0-2c-0.7-4.1,0.8-6.7,5.1-7.4c0.1,0.2,0.2,0.2,0.3,0.3
	c-0.1-0.1-0.2-0.3-0.4-0.8c-1.1-1-2.1-1.6-3.1-2.2c0.3-0.4,0.5-0.7,0.8-1.1c1.6-0.2,3.2-0.4,5.4-0.7c0-5.3,0-10.5,0-15.8
	c1.3,0.1,2.6,0.2,4.5,0.6c0.8,0.4,1.2,0.6,1.5,0.7c-5,12.5-9.2,25.3-15.1,37.3C1168.5,426.4,1161.3,436.5,1154.5,447.1
	 M1181.5,394.6c-0.1,0.2-0.1,0.4-0.2,0.6C1181.5,395.1,1181.6,395,1181.5,394.6z"/>
<path class="st8" d="M757.4,181.9c-0.1,1.9-0.1,4.1-1,5.9c-4.3,8.4-9,16.5-13,25c-1.4,2.9-1,6.6-1.3,9.4c-1,0.8-2.4,1.5-2.7,2.4
	c-3.5,11.4-7.3,22.7-10.2,34.2c-2.2,8.6-3.2,17.5-4.6,26.3c-0.6,3.7-0.6,7.6-1.4,11.7c-0.5,0.3-1,0.3-1,0.3
	c0.6-17.6,3.3-34.9,7.9-51.9C736,222.8,745,201.7,757.4,181.9z"/>
<path class="st9" d="M1194,353c0.4-4.1,0.7-8.3,1.3-12.3c2.4-15.7,4.1-31.5,1.8-47.4c-1.1-7.7-1.9-15.4-2.7-23.1
	c-0.1-1.4,0.4-2.9,0.9-4.8c0.3-0.4,0.7-0.4,0.7-0.4c1.3,10.8,3.8,21.7,3.8,32.5c0,16.2-1.7,32.4-2.8,48.6c-0.1,2-1.1,4-2,6.4
	C1194.4,353,1194.2,353,1194,353z"/>
<path class="st10" d="M881.2,532.3c1.6,0,3.5,0.2,5.3,0.4c2.6,0.3,5.6,3.7,7.4-1.1c3.3,4.5,8,6.1,13.7,6.5c0.6,0.2,0.6,0.2,0.7,0.3
	c-0.1-0.1-0.2-0.3-0.4-0.4c2.3-0.2,4.7-0.5,7-0.7c0,0.5,0.1,1,0.1,1.5c-1.4,0.1-2.8,0.3-4.2,0.4c0,0.2,0,0.4,0.1,0.7
	c7.7,0,15.3,0,24.2,0c-1.9,0.9-2.7,1.3-3.5,1.7c0,0.5,0,0.9,0,1.4c4.8,0,9.7-0.2,14.5,0.1c1.9,0.1,3.7,1.4,5.6,2.5
	C927.8,545,904.3,540.8,881.2,532.3z"/>
<path class="st10" d="M1020.5,538.2c0.9-1.5,2.2-3,3.6-4.6c2.4,0.1,5.2,0.2,7.9,0.4c0.1-0.3,0.1-0.7,0.2-1c-2.7-0.7-5.5-1.5-8.2-2.2
	c0-0.2,0-0.5,0-0.7c4.6,0,9.3-0.6,13.8,0.2c3.9,0.6,6.5-0.6,9.2-2.9c1.3-1.1,3.2-1.4,4.6-2.4c0.8-0.6,1.1-2,2.1-4.1
	c1.4,0.5,4.1,1.5,7.1,2.8C1047.6,528.7,1034.3,533.5,1020.5,538.2 M1024.5,535.6C1024.5,535.6,1024.4,535.5,1024.5,535.6z"/>
<path class="st11" d="M722.1,297.5c0.1-0.5,0.5-0.5,0.8-0.5c1.5,16.6,2.8,33.1,4.1,49.6c0.2,2,0,4,0.5,5.9c0.8,2.9,2.3,5.2,6.4,4.5
	c-1.5,0.5-3.3,1.1-5.6,1.7c-2.3-15.4-4.4-30.9-6.2-46.4C721.5,307.6,722,302.7,722.1,297.5z"/>
<path class="st12" d="M1018,87.6c-2.6-4.4-5.2-9.1-7.9-14.2c12.5,3.4,25.1,7.1,38,11c-1.7,0-3.7,0.1-5.5-0.4
	c-8.4-2.4-16.8-4.9-25.2-7.3c-0.7-0.2-1.5-0.2-3-0.4C1015.7,80.3,1016.8,83.8,1018,87.6z"/>
<path class="st12" d="M903.4,89.2c0.8-3.7,1.6-7.4,2.7-12.2c-1.5,0.1-3.7,0-5.7,0.5c-5.2,1.1-10.4,2.4-16,3.6
	c8.6-2.7,17.7-5.3,27.2-8c0.4,0,0.4-0.1,0.4,0.3C909.1,78.8,906.2,84,903.4,89.2z"/>
<path class="st10" d="M755.8,429.5c8.3,6.4,13.5,15.5,18.1,25.4C767.8,446.8,761.8,438.3,755.8,429.5z"/>
<path class="st4" d="M1124,474.2c1.4-2.1,2.8-3.9,3.8-5.2c0.1,0.7,0.5,2.5,0.9,4.3c0.4,0.1,0.8,0.2,1.2,0.3
	c2.1-3.5,3.8-7.4,6.4-10.4c1.3-1.5,4.3-1.6,7-2.4c-3.8,4.7-8,9.3-13,14c-2.6,0-4.5,0-6.3-0.1C1124.1,475,1124,474.5,1124,474.2z"/>
<path class="st13" d="M786.8,144.3c0.8,0.5,1.4,1.3,2.1,2.4c0,0.3,0,0.3,0,0.3c-0.9,1.5-1.8,3-3,5c-4.7-2.5-6,1.9-8,5.3
	c-0.8,1.4-2.2,2.5-4,3.8c-1.3,0.2-2,0.3-2.6,0.4C776.5,155.9,781.6,150.3,786.8,144.3z"/>
<path class="st8" d="M771.4,161.6c0.6-0.1,1.3-0.2,2.2-0.5c0.3,1.7,0.3,3.4,0.3,5.6c-5.8-0.7-7.9,3.4-8.4,8.3c-0.5,4-4.3,3-6.4,4.9
	c3.1-5.2,6.6-10.5,10.6-15.9c0.7-0.6,0.9-0.9,1-1.3c0,0,0,0.1,0.3,0C771.3,162.3,771.3,161.9,771.4,161.6
	C771.4,161.6,771.4,161.6,771.4,161.6z"/>
<path class="st8" d="M824.5,110.9c-0.4,1.1-1.1,2.3-1.9,3.5c-1,1.6-2,3.1-3.3,3.9c-2.1,1.4-4.1,2.9-6.3,4.1
	c-1.3,0.7-2.8,1.1-4.6,1.6C813.4,119.7,818.8,115.3,824.5,110.9z"/>
<path class="st12" d="M1194,353.4c0.2-0.4,0.4-0.4,0.9-0.4c-1.6,8.2-3.5,16.4-5.6,24.9c-0.5,0.2-0.9,0-1.3-0.4
	C1189.8,369.4,1191.9,361.6,1194,353.4z"/>
<path class="st8" d="M1194,261c-1.8-7.8-3.6-15.7-5.2-23.8c2.3,7.5,4.4,15.2,6.1,23.4C1194.4,261,1194.2,261,1194,261z"/>
<path class="st10" d="M967.5,546c2.5-3.4,9.7-4.2,15.4-1.5C978,545.2,972.9,545.6,967.5,546z"/>
<path class="st10" d="M1124,475.3c1.9-0.3,3.7-0.3,6.1-0.2c-2.8,3.3-6.1,6.5-9.7,9.8C1121.3,482,1122.6,478.8,1124,475.3z"/>
<path class="st12" d="M1066.8,92.7c-7.1,0.2-12.6-4.2-18.6-7.7C1054.4,87.2,1060.5,89.8,1066.8,92.7z"/>
<path class="st10" d="M1001.4,542.8c-0.6-3.1,1.6-2.5,3.5-2.9c3-0.6,5.8-1.9,8.7-2.4c1.8-0.3,3.8,0.3,6,0.6
	C1014,539.7,1007.9,541.3,1001.4,542.8z"/>
<path class="st13" d="M1182.1,216.6c-0.6,0.2-1.6,0.1-1.7-0.3c-1.9-4.5-3.6-9.1-5.4-14C1177.4,206.6,1179.8,211.4,1182.1,216.6z"/>
<path class="st8" d="M1139.3,147.9c-1.8,1.5-3.5,2.7-4.4-1c-0.4-1.6-2.2-3-3.6-5c-0.2-1.1-0.2-1.5-0.2-2
	C1133.7,142.4,1136.4,145,1139.3,147.9z"/>
<path class="st9" d="M1112.2,121.9c-4.2,0.9-7.7-0.3-9.1-4.7c1.2-0.3,1.7-0.3,2.2-0.3C1107.6,118.5,1109.8,120.1,1112.2,121.9z"/>
<path class="st9" d="M1128,136.7c-0.7,0-1.6-0.3-2.6-0.4c-4-0.4-6.1-2.4-5.3-7C1122.7,131.4,1125.2,133.9,1128,136.7z"/>
<path class="st13" d="M1174.9,200.6c-3.4-2.3-7.4-4.6-5.8-10.4C1171,193.3,1173,196.8,1174.9,200.6z"/>
<path class="st10" d="M752.1,423.1c0.4-0.9,0.9-1.4,1.6-2c1.4,1.5,2.6,3.1,3.9,4.9c-0.3,0.5-1,1.5-1.8,2.9
	C754.6,427.3,753.4,425.4,752.1,423.1z"/>
<path class="st8" d="M843.5,98.8c-1.2,4.4-4.8,5.5-9.3,6.1C836.9,102.9,840.1,100.9,843.5,98.8z"/>
<path class="st9" d="M1120,128.6c-4.3,1-6.3-1.8-7.4-5.7C1115.2,124.4,1117.5,126.4,1120,128.6z"/>
<path class="st8" d="M833.5,104.9c-2.4,2-5.2,4-8.4,6C827.6,108.9,830.4,106.9,833.5,104.9z"/>
<path class="st11" d="M1098,111.6c-2.4-0.8-7.4,1.9-6.9-4.5C1093.4,108.3,1095.7,109.8,1098,111.6z"/>
<path class="st13" d="M1169.1,189.6c-3.2-1.1-5.2-3.5-4.9-7.5C1165.9,184.2,1167.4,186.7,1169.1,189.6z"/>
<path class="st8" d="M851.7,94.8c-2.1,1.5-4.6,2.8-7.4,4.1C846.3,97.5,848.8,96.1,851.7,94.8z"/>
<path class="st11" d="M1083,101.6c-2.2-0.4-4.6-1.1-6.6-2.2c0.8-0.4,1.3-0.4,1.8-0.4C1079.7,99.7,1081.3,100.5,1083,101.6z"/>
<path class="st9" d="M1130.9,139.5c0.1,0.8,0.1,1.3,0.1,2.1c-1-1.1-2-2.6-2.9-4.4C1129,137.6,1129.9,138.4,1130.9,139.5z"/>
<path class="st12" d="M1078,98.7c-0.3,0.3-0.8,0.3-1.6,0.3c-1.6-0.9-2.8-1.8-4-3.1C1074.1,96.5,1075.9,97.5,1078,98.7z"/>
<path class="st11" d="M1091,106.5c-3.1,1.7-4.4-1-6-3.3C1087,104,1088.9,105.1,1091,106.5z"/>
<path class="st12" d="M1072.1,95.4c-1.5-0.4-3.3-1-5.1-2C1068.6,93.7,1070.3,94.4,1072.1,95.4z"/>
<path class="st13" d="M1161.1,176.6c-0.9-0.9-1.9-2-2.8-3.6C1159.3,173.8,1160.2,175,1161.1,176.6z"/>
<path class="st11" d="M1105.2,116.6c-0.3,0.3-0.9,0.4-1.8,0.4c-1.4-0.8-2.3-1.6-3.3-2.8C1101.7,114.7,1103.4,115.5,1105.2,116.6z"/>
<path class="st8" d="M1143.2,152.5c-0.9-0.5-1.9-1.4-2.6-2.6C1141.5,150.4,1142.3,151.3,1143.2,152.5z"/>
<path class="st13" d="M1157.4,170.9c-0.7-0.2-1.5-0.7-2.3-1.5C1155.8,169.5,1156.5,170,1157.4,170.9z"/>
<path class="st8" d="M1145.3,154.9c-0.6-0.3-1.4-0.8-2.2-1.8C1143.8,153.4,1144.5,154.1,1145.3,154.9z"/>
<path class="st13" d="M1163.1,179.6c-0.6-0.5-1.3-1.3-2-2.4C1161.8,177.6,1162.4,178.5,1163.1,179.6z"/>
<path class="st9" d="M1193.8,261.2c0.4-0.2,0.6-0.2,1.1-0.2c0.3,0,0.5,0.3,0.3,0.8c-0.2,0.7-0.2,1-0.2,1.2
	C1194.5,262.5,1194,261.9,1193.8,261.2z"/>
<path class="st8" d="M1195,263.3c0-0.6,0-0.8,0.1-1.4c0.4,0.5,0.7,1.4,0.9,2.7c0,0.4-0.5,0.4-0.8,0.4
	C1195,264.6,1195,264.1,1195,263.3z"/>
<path class="st10" d="M962.3,546c0.2-0.2,0.8-0.3,1.5-0.3C963.5,546,963.1,546,962.3,546z"/>
<path class="st10" d="M773.8,455.4c0.4,0.1,0.7,0.6,1.2,1.3C774.6,456.6,774.2,456.1,773.8,455.4z"/>
<path class="st7" d="M1153.3,448.8c-0.1-0.4,0.2-0.9,0.6-1.6C1154,447.6,1153.8,448.1,1153.3,448.8z"/>
<path class="st11" d="M1085,102.7c-0.4,0.1-1-0.1-1.7-0.6C1083.7,102,1084.2,102.2,1085,102.7z"/>
<path class="st5" d="M956.7,6.2c0,0.4-0.3,1-0.9,1.8C955.8,7.6,956.1,7,956.7,6.2z"/>
<path class="st8" d="M758.6,180c0.1,0.5-0.1,1.1-0.7,1.7C757.9,181.2,758.1,180.7,758.6,180z"/>
<path class="st13" d="M1164.3,181.5c-0.3-0.1-0.8-0.5-1.2-1.3C1163.5,180.3,1163.8,180.7,1164.3,181.5z"/>
<path class="st11" d="M1100.1,113.7c-0.2,0.1-0.5-0.1-0.9-0.6C1099.4,113,1099.7,113.2,1100.1,113.7z"/>
<path class="st5" d="M960.2,2.5c0.2,0.2,0.3,0.5,0.3,0.8c-0.1-0.1-0.3-0.1-0.5-0.4C959.9,2.7,960.1,2.5,960.2,2.5z"/>
<path class="st5" d="M962.2,2.6c-0.2,0.2-0.4,0.2-1.1,0C961.2,2.4,961.6,2.4,962.2,2.6z"/>
<path class="st8" d="M1148.2,158.6c-0.2,0-0.5-0.2-0.9-0.7C1147.5,157.9,1147.8,158.1,1148.2,158.6z"/>
<path class="st13" d="M1158.4,172.4c-0.3,0-0.5-0.1-0.7-0.5C1158.1,171.8,1158.3,172,1158.4,172.4z"/>
<path class="st13" d="M770.5,162.8c0.1,0.2,0,0.6-0.5,1C769.9,163.6,770.1,163.3,770.5,162.8z"/>
<path class="st13" d="M771.2,161.7c0.1,0.2,0.1,0.5-0.3,1C770.7,162.4,770.8,162.1,771.2,161.7z"/>
<path class="st8" d="M1147.3,157.5c-0.2,0-0.5-0.2-0.7-0.7C1146.9,156.7,1147.1,157,1147.3,157.5z"/>
<path class="st8" d="M1146.4,156.2c-0.2,0.1-0.5,0-0.6-0.3C1146,155.8,1146.2,155.9,1146.4,156.2z"/>
<path class="st8" d="M1140.3,149.1c0.1,0.1-0.4,0.3-0.4,0.3s-0.3-0.4-0.2-0.5S1140.2,149,1140.3,149.1z"/>
<path class="st7" d="M1182.8,376.6c0.3,5.5,0.3,10.7,0.3,16c-2.2,0.3-3.8,0.5-5.4,0.7c-0.3,0.4-0.5,0.7-0.8,1.1
	c1,0.6,2.1,1.3,3.1,2.2c0.1,0.3,0,0.4,0,0.4c-4.2,0.8-5.7,3.4-5,7.5c0.1,0.6,0,1.3,0,2c-0.3,4.4-1.7,7.5-7.6,5.3
	c-0.1,2.9-0.6,5.3-0.3,7.6c0.5,4.2-0.9,6.4-5.4,5.6c-0.6-0.1-1.3,0.2-1.9,0.3c-0.6,11.6-1,16.4-10.4,15.7c-8.3-5-16.6-7.9-26.2-7.1
	c-12,1.1-21.6,5.8-28.2,16.1c-2,3.1-3.9,6.1-6.1,9.7c-7.1-4.9-15.2-5.6-23.7-3.3c-8.6,2.4-14.2,8.2-18.3,16.1
	c-6.4-4.4-12.8-7.2-20.5-4.2c-5.1,2-9.1,5.2-10.9,10.2c-1.5,4.1-3.8,4.3-6.1,1.9c-5.1-5.4-10.4-10.8-14.1-17.1
	c-8.1-13.5-11.2-28.9-13.9-44.3c-0.9-5-0.5-10.2-0.1-15.7c3.4-0.5,6.3-0.9,9-0.4c1.6,0.3,3,2,4.5,3.1c1,20.7,6,40.2,18.5,58.9
	c1.5-14.4,8.1-23.8,20.7-27.7c12.7-3.9,23.1,0.6,31.6,10.3c8.1-22.1,17.3-28.1,38.7-24.9c1.2-13.8,7.2-25,19.6-31.9
	c12.4-6.9,25.1-6.6,38.1,0.1C1165.5,381.5,1171.9,375.9,1182.8,376.6z"/>
<path class="st14" d="M1036.3,351.9c2.5-9.4,5.8-18.6,8-28.1c3.6-15.3,6.5-30.7,10.2-46.5c1-1.6,1.9-2.8,2.1-4
	c1-5.9,1.8-11.8,2.6-17.8c12.5,13.7,21.2,29.7,27.7,46.9c7.8,20.7,10.5,42.2,9,64.2c-1.1,17.4-5.5,34-12.4,50
	c-0.2,0.5-0.7,1-1.2,1.7c-3.6-7.8-6.7-15.4-10.5-22.7C1062.8,378.9,1051.4,364.1,1036.3,351.9z"/>
<path class="st15" d="M994.9,405.7c-1.6-0.7-3-2.3-4.7-2.6c-2.7-0.5-5.6-0.1-8.8,0c-6.4,0-12.4-0.1-18.8-0.6
	c-0.2-6.1,0-11.8,0.3-17.6c0.1-0.2,0.1-0.7,0.2-0.8s0.3-0.3,0.5-0.3c0.2,0,0.4,0.3,0.6,0.6c11.2,0.4,22.2,0.6,33.1,0.6
	c0.5,0,1.1-0.6,2-1.1c0.8,0,1.2,0,1.8,0.4c0.6,0.4,1,0.6,1.5,0.6c0.1-0.1,0.4,0.1,0.4,0.1c2.6,5.7,5.1,11.4,8.2,18.1
	c-4.4,0-8.3-0.2-12.1,0.1C997.6,403.2,996.3,404.5,994.9,405.7z"/>
<path class="st16" d="M964,384c0,0-0.2-0.3-0.4-0.7c-0.1-3,0-5.7,0.3-8.6c0.1-0.7,0-1.2,0.1-2.1c0.8-10.5,1.5-20.5,2.2-30.6
	c0.3,2.7,0.9,5.5,0.9,8.2c-0.2,8.8-0.5,17.5-1,26.3c-0.2,3.4,0.8,4.7,4.4,4.6c11-0.2,21.9,0.2,32.9-0.2c5.8-0.2,11.6-1.2,17.4-2.2
	c1-0.2,2.3-2.6,2.2-3.9c-0.4-4.3,1.6-6.1,5.8-6.7c-0.9,2.7-2.2,5.5-3.9,8.8c-0.6,0.7-0.7,1-0.7,1.4c-0.6,6.6-6,5.8-10.3,6.4
	c-3.3,0.4-6.6,0.1-10.4,0.2c-0.5,0.1-0.7-0.1-1-0.3c-0.7-0.3-1.1-0.5-1.5-0.6c-0.4-0.1-0.9-0.1-2.1-0.2
	C986.7,383.8,975.4,383.9,964,384 M1020.5,381.4c0.1-0.2,0.1-0.4,0.2-0.6C1020.5,380.9,1020.4,381,1020.5,381.4z"/>
<path class="st16" d="M1048.1,170.6c-1.4-0.3-2.9-0.9-4.3-1.5c2-4.8,0.6-9.6-2.9-12.3c-1-0.8-1.8-2.9-1.5-4.1
	c1.5-7-0.9-12.4-6.9-15.9c-0.6-0.4-0.5-2.9,0-4.2c0.4-1.2,1.7-2,2.9-3.2c2.4,5.5,4.4,11.2,6.5,16.9c0,0,0-0.1,0,0.2
	c0.3,1.3,0.7,2.1,1,3C1044.6,156.4,1046.3,163.3,1048.1,170.6z"/>
<path class="st17" d="M1068.3,119.3c1,4.5,4.2,6.9,8.2,7.8c-2.8,2.8-5.8,5.7-8.6,8.5c0.7-5.1-5.3-5.6-9.6-9.3
	C1064.2,126.3,1067.3,124.3,1068.3,119.3z"/>
<path class="st17" d="M1142,344c1.8,0.5,3.1,0.9,4.5,1.3c-5.4,0.4-8.2,3.1-8.8,8.9c-0.9-5.4-4.1-7.4-9.1-8.1
	c4.3-1.9,9.5-2.7,8.1-9.9C1138.8,339.4,1140.2,341.6,1142,344z"/>
<path class="st13" d="M1053.2,198.3c0,0,0.1-0.1,0.1-0.6c-1-6-2-11.4-3-16.8c-0.1-0.4-0.1-0.9-0.2-1.9c-0.4-1.4-0.7-2.3-1-3.1
	c0,0,0,0.1,0-0.2c0.1-0.2,0.2-0.7,0.2-0.7c1,2.5,2.5,4.9,3,7.4c1.2,5.6,2.1,11.2,2.7,16.9c1.1,9.9,2,19.9,2.7,30.3
	c-0.5,0.4-0.7,0.4-1.1,0.1C1055.4,219,1054.3,208.6,1053.2,198.3z"/>
<path class="st13" d="M1041.9,145.8c-2.1-5.2-4.1-10.9-6.5-16.8c-1.7-4.2-3.1-8.1-4.6-12.4c1,0.7,2,1.8,3.1,2.8c1,1,2.2,1.8,3.7,2.7
	c0.4,0,0.4,0,0.4,0c-3.9,5.2,0.3,10,1.9,14.1C1041.1,139.3,1041.9,142.1,1041.9,145.8z"/>
<path class="st18" d="M1059.2,255.3c-0.8,6.2-1.6,12.1-2.5,18c-0.2,1.2-1.1,2.4-1.9,3.6c0.3-8,0.9-16,1.6-24.5
	c0.1-0.5,0.4-0.5,0.6-0.3c0.5,0.5,0.8,0.7,1.1,1C1058.3,253.8,1058.7,254.4,1059.2,255.3z"/>
<path class="st13" d="M1030.9,115.8c-2.1-4.2-4.1-8.8-6.1-14.2c0.1-1.1,0.1-1.4,0.2-1.7c0.8,0,2.1-0.3,2.2-0.1
	c1.4,4.9,2.8,9.7,4.1,14.6C1031.3,114.8,1031.1,115.2,1030.9,115.8z"/>
<path class="st19" d="M1058,252.7c-0.3,0.2-0.6,0-1.2-1c-0.2-7.7-0.1-14.7,0-21.7c0.2,0,0.4,0,0.9,0
	C1058,237.4,1058,244.8,1058,252.7z"/>
<path class="st12" d="M1023,97.7c-1.6-2.7-3.2-5.8-4.9-9.3C1023,89.3,1022.7,93.4,1023,97.7z"/>
<path class="st13" d="M1042.9,149.1c-0.4-0.5-0.7-1.4-1.1-2.6C1042.1,146.9,1042.5,147.8,1042.9,149.1z"/>
<path class="st16" d="M1049.2,174.7c0.1,0.3,0,0.8,0,1c-0.3-0.6-0.6-1.4-0.6-2.5C1048.9,173.5,1049,173.9,1049.2,174.7z"/>
<path class="st13" d="M1038,122c0.1-0.4,0.2-0.9,0.4-1.3c0,0.3,0,0.7-0.2,1.2C1038,122,1038,122,1038,122z"/>
<path class="st12" d="M1023.9,99.8c-0.3-0.2-0.6-0.7-1-1.5C1023.3,98.5,1023.6,99,1023.9,99.8z"/>
<path class="st12" d="M1024.7,100c0.2,0.3,0.2,0.6,0,1.3c-0.3,0.1-0.5-0.3-0.8-1C1024.1,100,1024.3,100,1024.7,100z"/>
<path class="st1" d="M1024.3,378.1c-0.2-0.2-0.1-0.5,0.3-0.9C1024.7,377.3,1024.6,377.7,1024.3,378.1z"/>
<path class="st16" d="M1048.9,171.7c-0.4,0.1-0.6-0.1-0.7-0.6C1048.4,171.1,1048.6,171.3,1048.9,171.7z"/>
<path class="st20" d="M903.4,89.2c2.9-5.1,5.7-10.3,8.6-15.8c5.8,1.3,11.5,3,18.1,4.7c10.8,1.1,20.9,2.1,31,3.2
	c0,9.4,0.3,18.8-0.1,28.2c-0.2,4.8,0.8,7.8,5.6,9c-4.3,0.5-8.4,0.6-12.8,0.6c-2.4,0.4-4.5,0.9-6.9,1.4
	c-13.1,4.4-22.3,12.9-28.7,24.9c-0.1,0.2-0.2,0.7-0.1,0.7c0,0,0-0.1-0.2,0.2c-1,2.4-1.8,4.7-2.7,7.2c-0.2,0.7-0.2,1.1-0.6,1.8
	c-0.3,6.8-0.3,13.3-0.3,20.3c1.6,4.5,3.2,8.7,4.8,12.7c0,0-0.1,0,0,0.3c2.4,3.5,4.7,6.6,7.2,10c1.4,1.4,2.6,2.5,4,3.9
	c2.6,1.9,5,3.5,7.5,5.1c0,0,0.1,0,0.3,0.2c0.5,0.3,0.8,0.4,1.3,0.7c0.3,0.5,0.6,0.6,1.3,0.7c7.1,1.8,13.9,3.4,20.6,5.1
	c0,10.8-0.1,21.6,0.1,32.4c0,1.7,1.6,3.4,2.3,5.4c-2.3,0.6-4.3,0.8-6.8,1.2c-3.6,2.4-5.6,5.4-5.3,9.6c0.6,11.2,1.2,22.5,1.9,33.7
	c0.4,6.3,1.1,12.5,1.6,19.1c0,2.1,0.2,3.8,0.2,5.9c0.1,3.6,0.2,6.7,0.4,9.9c1.1,17.5,2.2,34.9,2.7,52.4c-1.2,0-1.8,0-2.4,0
	c-0.3,0-0.7,0-1.6,0c-1.3,0-2,0-2.7,0c0.1,0,0,0-0.5,0c-10.7,0-20.8,0.1-31.4,0.1c-2.9-0.1-5.3,0-7.8-0.1c-4.2-0.3-8.3-0.7-12.5-1
	c0,0.1,0.1,0,0-0.3c-0.8-1.4-1.5-2.5-2.2-3.5c0,0,0.1,0,0-0.4c-3.8-9.3-7.5-18.1-11.2-27.4c-4.1-14.4-8.6-28.4-12.3-42.6
	c-2.8-10.7-4.5-21.7-6.6-33c-0.5-7.9-1.2-15.4-1.7-23.3c0.1-1.2,0.1-1.9,0.1-2.7c0.1,0.1,0.1-0.2,0.1-0.2s-0.2,0.1-0.2-0.4
	c0.1-8.3,0.2-16.2,0.3-24c0.1-4.7,0.2-9.4,0.7-14.7c0.7-2.5,0.9-4.4,1.2-6.3c0.1-0.4,0.3-0.9,0.4-2.1c0.9-6.1,1.7-11.5,2.8-17.3
	c0.4-1.5,0.5-2.7,0.7-3.8c2.1-9.3,4.3-18.6,6.5-28.2c0.1-0.7,0.1-1.2,0.1-1.6c0,0-0.1,0,0.3-0.1c5.9-14.9,11.4-29.8,17-44.6
	c0,0-0.3,0,0.1-0.2c2-3.9,3.6-7.5,5.4-11.4c0.6-1.3,1-2.3,1.5-3.3c0,0-0.4-0.2,0-0.3C903,90.4,903.2,89.8,903.4,89.2
	C903.3,89.2,903.3,89.1,903.4,89.2z"/>
<path class="st14" d="M865.3,252.6c0.6,7.5,1.3,15,1.4,23c-0.8,2-1.5,3.5-1.3,4.9c0.6,3.7,1.5,7.4,2.3,11.1
	c1.7,7.8,3.5,15.6,5.1,23.5c-0.2,0.5-0.2,0.8-0.2,1.2c0.1-0.4,0.3-0.9,0.7-1c2.3,7.3,4.5,14.4,6.4,21.5c1.2,4.4,2.2,8.8,3,13.4
	c-0.2,0.5-0.2,0.8-0.2,1.2c0.1-0.4,0.3-0.8,0.7-1.3c0.7,0.5,1.2,1,1.5,1.7c-0.3,0.6-0.5,1-1,1.4c-16.4,14.4-28.7,31.5-38,50.8
	c-1.6,4.4-3.3,8.7-5,13.4c-1.2-0.7-2.4-1.8-3.7-3.1c-3.4-12.1-6.6-23.9-9.7-35.7c-0.3-1.3-0.3-2.6-0.5-4.4
	c-4.9-45.2,7.4-84.8,36.4-119.9C864.2,253.4,864.7,253,865.3,252.6z"/>
<path class="st21" d="M808.5,255.9c0,0-0.3-0.1-0.8,0c-8.2,0.2-12,4.3-12.7,11.8c-0.2,1.8-0.8,3.5-1.2,5.2c-1.1-2.9-3-5.8-2.9-8.7
	c0-3.5-1.4-4.7-4.1-5.6c-3.7-1.3-7.4-2.5-11-4.2c4.7-1.5,9.3-2.7,14.2-3.9c0.3-2.1,0.7-4.3,1-6.5c0-0.4,0.1-0.8,0.4-1.7
	c0.4-1.1,0.5-1.7,0.6-2.3c0,0,0.2-0.4,0.5-0.8c0.5-1.1,0.8-1.9,1.3-3.6c1.4,5.5,2.7,10.1,3.9,14.9c4.7,1.3,9.3,2.5,14.2,3.8
	C810.5,255,809.5,255.4,808.5,255.9z"/>
<path class="st8" d="M895,106.3c-5.2,14.9-10.7,29.7-16.6,44.7c1.5-9,1.8-18.5,8-26.3c1.1-1.4,1.3-3.7,1.5-5.7
	C888.3,113.7,891.6,110.1,895,106.3z"/>
<path class="st12" d="M808.9,255.9c0.5-0.5,1.6-1,2.9-1.6c-4.9-1.3-9.6-2.6-14.2-3.8c-1.2-4.7-2.5-9.4-3.9-14.9
	c-0.5,1.7-0.7,2.5-1.3,3.4c-0.1-1.8,0.1-3.7,0.3-5.7c0.5,0,1-0.1,1.5-0.1c0.8,2.4,2.2,4.7,2.3,7.1c0.4,8.5,6.3,10.5,13,11.7
	c1.8,0.3,3.6,1,5.4,1.6c0,0.6,0,1.1,0,1.7C813.1,255.5,811.2,255.7,808.9,255.9z"/>
<path class="st12" d="M878,153c-2.2,9.3-4.3,18.6-6.4,27.8c-0.3,1.1-0.4,2.3-1,3.8c-0.8,0.4-1.2,0.4-1.5,0.4
	c2.6-10.4,5.1-20.9,8.1-31.6C877.5,153,878,153,878,153z"/>
<path class="st12" d="M794.2,272.9c0.1-1.7,0.7-3.4,0.9-5.2c0.7-7.5,4.5-11.6,12.6-11.7c-0.5,0.8-1.3,1.9-2.3,2.2
	c-4.3,1.3-7,3.4-7.2,8.4C798,268.7,795.8,270.8,794.2,272.9z"/>
<path class="st13" d="M790.6,244.2c-0.1,2.1-0.4,4.3-0.7,6.4c-4.9,1.3-9.5,2.4-14.4,3.6c2.7-1.7,6.2-5.5,8.7-4.9
	C789.6,250.5,788.1,245.6,790.6,244.2z"/>
<path class="st19" d="M865.4,252.3c-0.6,0.8-1.2,1.2-2,1.7c0-7.8,0.3-15.7,0.7-23.6c0.1-1.7,0.6-3.4,1.3-5.2
	c0.3,7.7,0.1,15.5,0,23.9c0,0.5,0.1,0.5,0.1,0.5C865.4,250.3,865.4,251.1,865.4,252.3z"/>
<path class="st11" d="M869,185.4c0.4-0.4,0.7-0.4,1.4-0.4c-0.6,5.4-1.5,10.8-2.4,16.6c-0.6-0.5-1.6-1.5-1.5-2.4
	C867.2,194.7,868.1,190.2,869,185.4z"/>
<path class="st8" d="M900.8,95c-1.6,3.6-3.3,7.2-5.1,11.1c1.1-3.9,2.5-8.1,4.2-12C900.3,94.7,900.5,94.8,900.8,95z"/>
<path class="st11" d="M867.3,204.1c0.1,1.8-0.2,3.7-0.8,5.8C864.4,207.8,864.3,205.8,867.3,204.1z"/>
<path class="st12" d="M900.9,94.7c-0.4,0.2-0.6,0-0.9-0.5c0.5-1.1,1-2,2-2.9C902,92.4,901.5,93.4,900.9,94.7z"/>
<path class="st8" d="M878,152.7c-0.1,0.3-0.6,0.3-0.8,0.3c-0.1-0.6,0.1-1.3,0.6-1.9C878.1,151.5,878.1,151.9,878,152.7z"/>
<path class="st13" d="M789,147c0.4,0.1,0.8,0.2,1.3,0.4c-0.3,0-0.7,0-1.1-0.2C789,147,789,147,789,147z"/>
<path class="st12" d="M903,89.3c0.2,0.5,0,1.1-0.4,1.9C902.5,90.7,902.6,90.1,903,89.3z"/>
<path class="st13" d="M791.7,240.2c0.2,0.4,0.1,1.1-0.3,1.8C791.2,241.6,791.3,241,791.7,240.2z"/>
<path class="st22" d="M929.9,202c-1.2-1.1-2.5-2.2-3.7-3.9c0.4-6-4-7.6-7.4-10c0,0,0.1,0,0.1-0.4c-1.3-4.5-2.6-8.6-3.9-13.2
	c0-2.6,0-4.7,0-6.9c-0.1-4.3-0.2-8.5-0.3-12.8c0.1-0.4,0.1-0.8,0.7-1.6c1.2-2.7,1.9-5,2.6-7.4c0,0,0,0.1,0.2,0
	c0.2-0.1,0.4-0.3,0.4-0.3c-0.1-0.2-0.3-0.4-0.4-0.6c6.3-11.8,15.5-20.3,28.9-24.5c2.8-0.4,4.9-1,7-1.6c4-0.1,8.1-0.1,12.6-0.3
	c0.4-0.1,0.4,0.1,0.6,0.4c0.7,0.2,1.3,0.1,1.8,0c1.4,0.3,2.9,0.5,4.8,1.1c0.7,0.6,1,0.7,1.4,0.7c0,0-0.1,0-0.1,0.3
	c0.8,0.5,1.6,0.7,2.3,0.9c0,0,0.5,0,0.3,0.3c-0.1,0.4-0.2,0.5-0.2,0.7c0.3-0.2,0.5-0.4,0.8-0.6c0,0,0.1-0.3,0.4,0
	c2,1,3.7,1.7,5.4,2.4c0,0,0.4,0,0.8,0.3c0.7,0.4,1,0.4,1.3,0.5c0,0-0.1,0-0.1,0.3c0.4,0.3,0.8,0.4,1.1,0.5c0,0,0.2,0,0.1,0.3
	c4.2,4.3,8.4,8.2,12.7,12.1c0,0-0.1,0,0,0.3c0.5,0.7,0.9,1.2,1.4,1.6c0.3,0.1,0.5,0.3,0.4,1.2c-1.7,3.9,0.2,5.2,3.1,5.9
	c9.2,18.2,2.3,44.2-15.8,56.5c-5.5,3.7-12.2,5.7-19.1,8.1c-1.3-0.4-2-0.6-2.6-0.6c-8.9-0.2-17.8,0-26.1-4.3
	c-0.2-0.1-0.9,0.7-1.4,1.1c-0.3,0.1-0.6,0-1.1-0.8c-0.6-0.5-1-0.6-1.3-0.6c0,0-0.1,0,0-0.4c0.7-1.8,1.3-3.2,1.6-3.9
	C936,202.8,932.9,202.4,929.9,202 M935.2,193.8c14.7,14.1,38.7,13.8,53.1-0.9c14.7-15,14.5-39.2-0.7-54.5
	c-14.9-14.9-41.9-14.8-57.1,4.3C919.1,157,920.8,181.7,935.2,193.8z"/>
<path class="st23" d="M957,253c2.1-0.3,4.1-0.6,6.6-0.8c0.4,0.1,0.7,0.4,1.2,0.6c2,2.2,3.5,4.2,4.8,6.5c-0.7,11.1-1.1,21.9-1.6,33.2
	c-0.3,8.5-0.5,16.6-0.9,24.6c-0.2,4-0.5,7.9-1.1,12.1c-0.9,4.9-1.6,9.6-2,14.4c-1.1,13.4-2,26.9-3,40.3c0,0,0,0-0.3-0.3
	c-0.4-4.1-0.6-7.9-0.4-12c0.4-1.3,0.7-2.2,0.7-3.2c0.1-37,0.2-74,0.2-111c0-1.1-2-2.3-3.4-3.5C957.3,253.6,957.1,253.4,957,253z"/>
<path class="st16" d="M966.4,329.1c0.3-4,0.6-7.9,0.7-11.9c0.3-8.1,0.6-16.1,1.2-24.9c0.8-11.6,1.1-22.4,1.5-33.3
	c-1.5-2-3.1-4-4.9-6.2c1.4-1.9,4.2-0.7,6.1,2.1c0.7,1.1,2.2,1.8,2.8,2.2c0,4.2,0,8.5,0,12.7c0,6.1,0.1,12.2-0.2,18.2
	c0,0.9-1.9,1.8-3.4,3.1c0.6,0.9,1.6,2.5,2.7,4.1c-0.6,0.1-1.1,0.1-1.7,0.2c-0.1,2.8-0.6,5.7-0.1,8.4c0.5,2.9,1.9,5.6,3,8.3
	c-0.4,0.2-0.9,0.3-1.3,0.5c-0.5-0.9-0.9-1.7-1.9-3.5c-1.1,8.9-2,17-3.1,25.1c-0.1,0.9-0.7,1.7-1.4,2.2
	C966.2,333.8,966.3,331.4,966.4,329.1 M972.7,281.9c-0.5,0.1-1,0.1-1.5,0.2c0.1,0.4,0.2,0.9,0.3,1.3
	C972,283.1,972.4,282.8,972.7,281.9z"/>
<path class="st17" d="M1056.6,229.7c0.1,7.4,0,14.4-0.1,21.8c0,0.5-0.3,0.4-0.4,0.5c-0.5-0.7-1.1-1.4-1.1-2.1
	c-0.7-12.3-1.5-24.7-2-37c-0.2-4.5,0-9.1,0.1-14.1C1054.3,208.6,1055.4,219,1056.6,229.7z"/>
<path class="st18" d="M961.4,81.1c-10.5-1-20.6-2-31-3.1c0.7-0.6,1.8-1.1,3.2-1.8c-1-0.7-1.8-1.2-1.7-1.1c8.8,1.2,18.5,2.6,28.7,3.9
	c3.1,0.4,5.7,0.8,8.4,1.5C966.6,80.9,964.2,81,961.4,81.1z"/>
<path class="st24" d="M966,329.3c0.3,2.2,0.2,4.5,0.1,7.3c0,1.8-0.1,3.2-0.1,5c-0.6,10.5-1.4,20.5-2.3,31.1c-0.2,1.1-0.1,1.7,0,2.2
	c-0.1,2.6-0.3,5.3-0.3,8.3c0.1,0.4-0.1,0.6-0.5,0.7c-0.6,0.1-0.7,0.1-1.1,0c-0.2,0-0.7,0-0.7,0c1-13.4,1.9-26.9,3-40.3
	C964.4,338.9,965.1,334.2,966,329.3z"/>
<path class="st25" d="M940.3,209.1c0.2-0.6,0.8-1.4,1.1-1.3c8.2,4.2,17.2,4.1,26.1,4.3c0.6,0,1.3,0.2,2.2,0.6
	c-0.4,0.4-1.2,0.5-2.6,0.6c-1.8,0.4-2.9,0.7-4,1c-0.5-0.1-0.9-0.1-1.7-0.1C954.2,212.5,947.4,210.9,940.3,209.1z"/>
<path class="st17" d="M1050,181.1c1.3,5.2,2.3,10.6,3.3,16.5c-0.4-2.3-0.9-5-1.3-7.8c-1.2,1.3-2.3,2.5-3.5,3.8
	C1048.9,189.5,1049.3,185.4,1050,181.1z"/>
<path class="st26" d="M1000,138.6c-4.2-3.6-8.4-7.5-12.5-11.8C991.7,130.5,995.8,134.4,1000,138.6z"/>
<path class="st26" d="M1004.9,147.6c-2.8-0.4-4.7-1.7-3-5.4C1003,143.7,1003.9,145.5,1004.9,147.6z"/>
<path class="st20" d="M963.1,214.5c1-0.6,2.1-0.9,3.6-1.2c0.6,0.6,0.9,1.2,1.2,1.8C966.3,215,964.7,214.9,963.1,214.5z"/>
<path class="st26" d="M984,124.7c-1.5-0.4-3.3-1-5.1-2.1C980.5,122.9,982.2,123.6,984,124.7z"/>
<path class="st26" d="M977.3,121.9c-0.6,0.1-1.4-0.1-2.2-0.7C975.8,121.1,976.4,121.4,977.3,121.9z"/>
<path class="st17" d="M1049,176.2c0.3,0.5,0.6,1.3,0.9,2.4c0,0.3-0.5,0.3-0.7,0.1c-0.2-0.3-0.2-0.8-0.2-0.8
	C1049,177.5,1049,177.1,1049,176.2z"/>
<path class="st26" d="M1001.3,140.6c-0.3-0.1-0.8-0.6-1.2-1.4C1000.4,139.4,1000.8,139.8,1001.3,140.6z"/>
<path class="st26" d="M968.7,119c-0.2,0.2-0.8,0.3-1.5,0.2C967.4,118.9,967.9,118.9,968.7,119z"/>
<path class="st26" d="M975.1,120.7c-0.2,0.2-0.5,0.1-0.9-0.4C974.3,120.2,974.6,120.3,975.1,120.7z"/>
<path class="st26" d="M978.3,122.5c-0.2,0.2-0.5,0.4-0.8,0.6c0-0.1,0-0.3,0.3-0.5C978.2,122.5,978.3,122.5,978.3,122.5z"/>
<path class="st26" d="M986.2,125.6c-0.2,0.2-0.5,0.1-1-0.2C985.4,125.2,985.7,125.3,986.2,125.6z"/>
<path class="st16" d="M1048.8,178.1c0.2-0.1,0.2,0.4,0.2,0.7C1048.9,178.7,1048.8,178.4,1048.8,178.1z"/>
<path class="st26" d="M987.2,126.3c-0.2,0.2-0.6,0.1-1-0.3C986.5,125.8,986.8,125.9,987.2,126.3z"/>
<path class="st4" d="M1122.3,474c0.2-0.2,0.8-0.3,1.5-0.2C1123.6,474,1123.1,474,1122.3,474z"/>
<path class="st27" d="M845.9,404.4c9.2-19.7,21.5-36.8,38.2-51c2.3,3.8,3.8,7.5,5.6,11.2c2.4,4.8,5,9.6,7.5,14.4c0,0-0.1,0-0.2,0.3
	c0.7,1.3,1.6,2.4,2.5,3.5c0,0-0.2,0.1-0.2,0.4c1.3,0.9,2.7,1.8,4.1,1.8c5.2,0.2,10.5,0.1,15.7,0.5c-2.7,5.8-5.3,11.2-8.3,17.6
	c6.1,0,11.4,0,16.6,0.5c-0.4,5.4-0.5,10.4-1.3,15.3c-2.2,14-5.9,27.6-13.3,39.9c-1.1,1.8-3.1,3-4.6,4.5c-0.5-9.7-6.7-15.8-18.1-17.6
	c-1.1-4.7-1.6-9.5-3.3-13.9c-6-15.4-20.6-24.8-37.2-24.2C847,407.5,845.8,407.3,845.9,404.4z"/>
<path class="st7" d="M908,463.6c1.6-1.9,3.6-3.1,4.7-4.9c7.4-12.3,11.1-25.8,13.3-39.9c0.8-4.9,0.9-9.9,1.7-15.4
	c5.1-0.5,9.7-0.4,14.3-0.4c-2.2,12.8-3.9,25.7-6.8,38.3c-1.7,7.3-5.2,14.2-8,21.2c-1.6,4.2-4,6.4-9.1,4.8c-2.8-0.9-6.1-0.2-9.7-0.2
	C908.3,466.5,908.2,465.2,908,463.6z"/>
<path class="st28" d="M942.4,403.1c-5-0.1-9.6-0.1-14.7-0.1c-5.7,0-10.9,0-17,0c3-6.4,5.7-11.8,8.5-17.6c0.3-0.4,0.7-0.4,1.2-0.4
	c13.1,0,25.7,0.1,38.5,0c0.1,0,0.2,0,0.2,0.4c0,3.6,0.2,6.7,0.1,9.8c0,2.8-0.3,5.7-0.4,8.5C953.5,403.6,948.1,403.4,942.4,403.1z"/>
<path class="st6" d="M959.1,404c-0.2-3.1,0.1-5.9,0.1-8.8c0-3.1-0.1-6.2,0.1-9.9c0.8-0.8,1.2-1.1,1.6-1.4c0,0,0,0,0,0s0.5,0,0.8,0.2
	c0.5,0.5,0.7,0.7,1,0.8c-0.2,5.6-0.5,11.3-0.7,17.4c-0.2,2.2-0.3,4-0.5,5.9c-0.3,0-0.7,0.1-1,0.1C960.2,407,959.8,405.6,959.1,404z"
	/>
<path class="st5" d="M958.6,9.3c-0.2-0.1-0.2-0.3-0.2-0.6C958.5,8.9,958.6,9,958.6,9.3z"/>
<path class="st5" d="M962,6c-0.4-0.1-0.9-0.3-1.3-0.4c0.4,0,0.7,0,1.2,0.2C962,6,962,6,962,6z"/>
<path class="st7" d="M1181.6,394.7c0,0.2-0.1,0.4-0.3,0.5C1181.4,395.1,1181.5,394.8,1181.6,394.7z"/>
<path class="st7" d="M1180,397c0.1,0.1,0.2,0.3,0.4,0.4c-0.1,0-0.2-0.1-0.3-0.3C1180,397,1180,397,1180,397z"/>
<path class="st2" d="M908,538c0.1,0.1,0.2,0.3,0.4,0.4c-0.1,0-0.2-0.1-0.3-0.3C908,538,908,538,908,538z"/>
<path class="st2" d="M1024.4,535.5C1024.4,535.5,1024.5,535.6,1024.4,535.5z"/>
<path class="st25" d="M964.3,384.3c11.1-0.4,22.5-0.4,34.3-0.4c-0.1,0.4-0.6,1-1.2,1C986.4,384.8,975.5,384.7,964.3,384.3z"/>
<path class="st23" d="M962.9,384.8c-0.4,0.1-0.6-0.1-0.8-0.6c0.1-0.2,0.3-0.2,0.7-0.2C963,384,963,384.5,962.9,384.8z"/>
<path class="st25" d="M1001.2,384.2c0.2-0.1,0.7,0,1.2,0.4C1002.1,384.8,1001.7,384.6,1001.2,384.2z"/>
<path class="st23" d="M963.8,374.6c-0.2-0.2-0.3-0.8-0.2-1.5C963.8,373.5,963.9,373.9,963.8,374.6z"/>
<path class="st1" d="M1020.4,381.3c0-0.3,0.1-0.4,0.3-0.5C1020.6,380.9,1020.5,381.2,1020.4,381.3z"/>
<path class="st6" d="M958,254c1.1,1.1,3.1,2.3,3.1,3.4c0.1,37-0.1,74-0.2,111c0,1-0.3,1.9-0.7,2.8c-0.6-3.1-1.2-6-1.2-8.9
	c-0.1-7.5,0.1-15-0.1-22.6c-0.2-5.8-0.8-11.5-1.4-17.3c-0.1-0.6-1.6-1-2.4-1.5c-0.1-1.7-0.2-3.3-0.1-5.8c0.9-4.9,1.6-8.9,2.3-13
	c-0.3,0-0.6-0.1-0.8-0.1c-0.3,0.6-0.7,1.2-1.5,2.6c0-2.6,0.1-4.3,0-6.1c-0.4-9.3,0-18.7-1.5-27.7C952.4,264.1,954.1,259,958,254z"/>
<path class="st18" d="M883,350c-1.1-4.4-2-8.9-3.3-13.3c-2-7.1-4.1-14.2-6.4-21.5C873,315,873,315,873,315
	c-1.8-7.8-3.5-15.6-5.3-23.3c-0.8-3.7-1.8-7.4-2.3-11.1c-0.2-1.4,0.5-2.9,1.2-4.5c2.6,10.8,4.3,21.8,7.1,32.5
	c3.7,14.2,8.2,28.2,12.1,42.6c-0.3,0.4-0.8,0.3-0.8,0.3c-0.5-0.5-0.9-0.9-1.7-1.4C883,350,883,350,883,350z"/>
<path class="st18" d="M955.1,321.5c0.9,0.1,2.4,0.5,2.5,1.1c0.6,5.7,1.2,11.5,1.4,17.3c0.2,7.5,0,15,0.1,22.6
	c0.1,2.9,0.6,5.9,0.9,9.2c0.1,4.2,0.3,8,0.7,12.1c-0.1,0.6-0.6,0.9-1.3,1.3c-0.3,0-0.5,0-0.5-0.3c-0.1-0.5-0.2-0.7-0.2-0.9
	c-1.1-17.5-2.2-34.9-3.2-52.4C955.2,328.2,955.1,325.1,955.1,321.5z"/>
<path class="st18" d="M957.8,253.9c-3.7,5.1-5.4,10.1-4.3,17c1.5,9.1,1.1,18.5,1.5,27.7c0.1,1.8,0,3.5,0,6.1c0.8-1.4,1.1-2,1.5-2.6
	c0.3,0,0.6,0.1,0.8,0.1c-0.7,4.1-1.4,8.1-2.2,12.6c-0.7-5.9-1.4-12.1-1.9-18.4c-0.7-11.2-1.3-22.5-1.9-33.7
	c-0.2-4.2,1.7-7.2,5.3-9.6C957.1,253.4,957.3,253.6,957.8,253.9z"/>
<path class="st8" d="M884.8,351.7c0.1-0.3,0.6-0.3,0.8-0.2c4,8.9,7.7,17.8,11.5,27c-2.5-4.4-5-9.1-7.4-14c-1.8-3.6-3.3-7.4-5.3-11.3
	C884.3,352.7,884.5,352.4,884.8,351.7z"/>
<path class="st19" d="M919.9,385c0,0-0.4,0-0.7,0.1c-5.5,0-10.7,0.1-15.9-0.1c-1.4-0.1-2.7-1-4-1.9c4.2,0,8.4,0.4,12.5,0.7
	c2.5,0.2,4.9,0,7.8,0.4C920,384.6,920,384.8,919.9,385z"/>
<path class="st25" d="M920.4,385c-0.5-0.2-0.4-0.4-0.4-0.8c10.2-0.3,20.3-0.4,31-0.4c0.5,0.1,0.5,0,0.5,0c0.7,0,1.5-0.1,2.9,0
	c0.6,0.1,1,0.1,1,0.1l0.3-0.1c0.7,0,1.3,0,2.5,0c0.5,0.2,0.6,0.4,0.6,1C946.2,385,933.5,385,920.4,385z"/>
<path class="st25" d="M914.4,155.1c0.4,4,0.5,8.3,0.6,12.5c0,2.1,0,4.3-0.2,6.9c-0.2,0.5-0.6,0.5-0.6,0.5
	C914.2,168.5,914.1,161.9,914.4,155.1z"/>
<path class="st26" d="M918.9,188.5c3.3,2,7.7,3.7,7.2,9.4C923.6,195.1,921.3,191.9,918.9,188.5z"/>
<path class="st26" d="M930,202.3c2.9,0.1,5.9,0.5,9.2,0.9c-0.3,0.8-0.9,2.2-1.6,3.9C935,205.9,932.6,204.3,930,202.3z"/>
<path class="st26" d="M914.1,175.4c0-0.4,0.5-0.4,0.7-0.4c1.5,4.1,2.8,8.2,4.1,12.8C917.3,184,915.7,179.9,914.1,175.4z"/>
<path class="st25" d="M917.7,146.1c-0.4,2.1-1.1,4.4-2.2,6.8C915.9,150.8,916.6,148.6,917.7,146.1z"/>
<path class="st26" d="M953.6,118.9c-1.7,0.6-3.8,1.2-6.2,1.6C949.1,119.8,951.2,119.4,953.6,118.9z"/>
<path class="st19" d="M899.4,382.4c-0.7-0.8-1.6-1.9-2.3-3.3C897.8,379.9,898.5,381,899.4,382.4z"/>
<path class="st18" d="M955.8,383.7c-0.1,0.1-0.4,0.2-0.4,0.2s-0.4,0-0.5-0.1C955.1,383.7,955.5,383.7,955.8,383.7z"/>
<path class="st14" d="M865.5,249.6c-0.1-0.1-0.2,0-0.1-0.1s0.2-0.1,0.2-0.1S865.6,249.7,865.5,249.6z"/>
<path class="st26" d="M937.8,207.7c0.2-0.2,0.6-0.1,1.1,0.2C938.6,208.1,938.3,208,937.8,207.7z"/>
<path class="st18" d="M951.5,383.7C951.5,383.8,951.5,383.8,951.5,383.7C951.5,383.8,951.6,383.7,951.5,383.7z"/>
<path class="st25" d="M918,145.3c0.2,0,0.4,0.2,0.5,0.4c0,0-0.2,0.1-0.5,0.3C917.9,146,917.9,145.5,918,145.3z"/>
<path class="st18" d="M873,315c-0.1,0.4-0.2,0.9-0.4,1.3c0-0.4,0-0.7,0.2-1.2C873,315,873,315,873,315z"/>
<path class="st18" d="M883,350c-0.1,0.4-0.3,0.9-0.4,1.3c0-0.4,0-0.7,0.2-1.2C883,350,883,350,883,350z"/>
<path class="st29" d="M987.7,139.1c15,14.6,15.3,38.8,0.5,53.8c-14.4,14.6-38.4,15-53.2,0.2c-7.1-15.6-7-30.1,3.3-43.6
	c8.6-11.4,25.9-17.3,39.1-13.3C980.8,137.3,984.3,138.2,987.7,139.1z"/>
<path class="st30" d="M987.7,138.8c-3.4-0.6-6.9-1.5-10.3-2.6c-13.2-4-30.4,1.9-39.1,13.3c-10.3,13.6-10.4,28-3.4,43.4
	c-14.1-11.2-15.8-35.8-4.4-50.1C945.7,123.7,972.7,123.5,987.7,138.8z"/>
<path class="st24" d="M969.6,259.3c-0.1,10.6-0.5,21.4-1.2,32.5C968.5,281.3,968.9,270.5,969.6,259.3z"/>
<path class="st1" d="M972.8,282.2c-0.4,0.6-0.8,0.9-1.2,1.2c-0.1-0.4-0.2-0.9-0.3-1.3C971.7,282,972.2,282,972.8,282.2z"/>
</svg>
